<svg xmlns="http://www.w3.org/2000/svg" xmlns:xlink="http://www.w3.org/1999/xlink" zoomAndPan="magnify" preserveAspectRatio="xMidYMid meet" version="1.0" viewBox="77.33 167.09 253.44 51"><defs><g/><clipPath id="b36a6f6abb"><path d="M 0.398438 9 L 45.519531 9 L 45.519531 60 L 0.398438 60 Z M 0.398438 9 " clip-rule="nonzero"/></clipPath><clipPath id="4c4f359943"><rect x="0" width="46" y="0" height="71"/></clipPath><clipPath id="6a15f9e119"><rect x="0" width="49" y="0" height="71"/></clipPath><clipPath id="af60879d0c"><path d="M 0.238281 9 L 45.359375 9 L 45.359375 60 L 0.238281 60 Z M 0.238281 9 " clip-rule="nonzero"/></clipPath><clipPath id="0ef6047e03"><rect x="0" width="46" y="0" height="71"/></clipPath><clipPath id="903f979f45"><rect x="0" width="46" y="0" height="71"/></clipPath><clipPath id="1e959d9f19"><path d="M 177 167 L 199 167 L 199 213 L 177 213 Z M 177 167 " clip-rule="nonzero"/></clipPath><clipPath id="87755352e1"><path d="M 166.695312 173.472656 L 196.921875 162.230469 L 211.566406 201.59375 L 181.339844 212.839844 Z M 166.695312 173.472656 " clip-rule="nonzero"/></clipPath><clipPath id="4e7d25f9e9"><path d="M 166.695312 173.472656 L 196.921875 162.230469 L 211.566406 201.59375 L 181.339844 212.839844 Z M 166.695312 173.472656 " clip-rule="nonzero"/></clipPath><clipPath id="a5ba3ad946"><path d="M 0.519531 9 L 46 9 L 46 60 L 0.519531 60 Z M 0.519531 9 " clip-rule="nonzero"/></clipPath><clipPath id="44452c86d4"><rect x="0" width="47" y="0" height="71"/></clipPath><clipPath id="098554e8f8"><path d="M 0.199219 9 L 46 9 L 46 60 L 0.199219 60 Z M 0.199219 9 " clip-rule="nonzero"/></clipPath><clipPath id="826efe5a5d"><rect x="0" width="47" y="0" height="71"/></clipPath><clipPath id="68c549c966"><path d="M 0.0390625 9 L 27 9 L 27 60 L 0.0390625 60 Z M 0.0390625 9 " clip-rule="nonzero"/></clipPath><clipPath id="388c648362"><rect x="0" width="28" y="0" height="71"/></clipPath><clipPath id="2f899de04f"><rect x="0" width="47" y="0" height="71"/></clipPath></defs><g transform="matrix(1, 0, 0, 1, 224, 159)"><g clip-path="url(#4c4f359943)"><g clip-path="url(#b36a6f6abb)"><g fill="#1d0061" fill-opacity="1"><g transform="translate(1.541806, 56.471526)"><g><path d="M 43.496094 -20.511719 C 43.496094 -18.890625 43.414062 -17.203125 43.242188 -15.445312 C 43.058594 -13.574219 42.796875 -12.125 42.457031 -11.101562 L 42.4375 -11.042969 L 41.679688 -9.097656 C 41.09375 -7.585938 40.199219 -6.09375 39.003906 -4.625 L 38.953125 -4.566406 L 38.902344 -4.511719 C 38.277344 -3.828125 37.277344 -2.980469 35.910156 -1.972656 C 34.511719 -0.945312 33.113281 -0.136719 31.714844 0.457031 C 30.046875 1.132812 28.421875 1.628906 26.839844 1.9375 C 25.253906 2.25 24.097656 2.40625 23.371094 2.40625 L 23.371094 -0.210938 L 23.660156 2.390625 C 23.167969 2.445312 22.445312 2.484375 21.484375 2.511719 C 20.578125 2.535156 19.671875 2.546875 18.765625 2.546875 L 16.8125 2.546875 L 16.8125 -0.0703125 L 16.875 2.546875 L 15.375 2.582031 C 14.402344 2.605469 13.207031 2.617188 11.789062 2.617188 L 2.722656 2.617188 C 1.710938 2.617188 0.894531 2.269531 0.269531 1.574219 C -0.351562 0.886719 -0.609375 0.0429688 -0.511719 -0.957031 L -0.492188 -1.148438 L -0.445312 -1.332031 C -0.402344 -1.511719 -0.367188 -2.175781 -0.347656 -3.324219 C -0.324219 -4.65625 -0.3125 -6.1875 -0.3125 -7.917969 L -0.3125 -12.941406 C -0.3125 -14.503906 -0.335938 -15.726562 -0.378906 -16.613281 L -0.382812 -16.648438 L -0.382812 -16.683594 C -0.429688 -18.710938 -0.5 -20.738281 -0.589844 -22.765625 C -0.683594 -24.828125 -0.753906 -26.894531 -0.800781 -28.960938 L -0.800781 -41.101562 L -0.65625 -43.480469 L 1.953125 -43.324219 L -0.664062 -43.324219 C -0.664062 -44.230469 -0.359375 -44.988281 0.242188 -45.59375 C 0.847656 -46.195312 1.601562 -46.496094 2.511719 -46.496094 L 21.488281 -46.496094 L 21.488281 -41.265625 L 19.230469 -41.265625 L 19.230469 -46.496094 L 21.558594 -46.496094 C 24.394531 -46.496094 26.90625 -46.199219 29.085938 -45.601562 C 31.398438 -44.96875 33.746094 -43.675781 36.125 -41.714844 L 34.464844 -39.695312 L 36.074219 -41.757812 C 37.871094 -40.351562 39.265625 -38.660156 40.257812 -36.679688 C 41.15625 -34.882812 41.800781 -33.207031 42.195312 -31.65625 C 42.558594 -30.222656 42.792969 -29.222656 42.898438 -28.652344 C 43.003906 -28.0625 43.109375 -27.21875 43.207031 -26.121094 C 43.304688 -25.058594 43.378906 -23.992188 43.425781 -22.929688 C 43.472656 -21.867188 43.496094 -21.0625 43.496094 -20.511719 Z M 38.265625 -20.511719 C 38.265625 -20.984375 38.242188 -21.710938 38.199219 -22.695312 C 38.152344 -23.679688 38.085938 -24.660156 37.996094 -25.644531 C 37.910156 -26.589844 37.828125 -27.28125 37.75 -27.714844 C 37.667969 -28.167969 37.460938 -29.050781 37.125 -30.367188 C 36.824219 -31.554688 36.304688 -32.878906 35.578125 -34.339844 C 34.9375 -35.617188 34.03125 -36.714844 32.851562 -37.632812 L 32.828125 -37.652344 L 32.800781 -37.675781 C 30.996094 -39.160156 29.296875 -40.121094 27.703125 -40.554688 C 25.976562 -41.027344 23.925781 -41.265625 21.558594 -41.265625 L 19.230469 -41.265625 C 18.882812 -41.265625 18.550781 -41.332031 18.230469 -41.464844 C 17.910156 -41.597656 17.625 -41.785156 17.382812 -42.03125 C 17.136719 -42.277344 16.945312 -42.558594 16.8125 -42.878906 C 16.679688 -43.199219 16.617188 -43.535156 16.617188 -43.882812 C 16.617188 -44.226562 16.679688 -44.5625 16.8125 -44.882812 C 16.945312 -45.203125 17.136719 -45.484375 17.382812 -45.730469 C 17.625 -45.976562 17.910156 -46.164062 18.230469 -46.296875 C 18.550781 -46.429688 18.882812 -46.496094 19.230469 -46.496094 L 21.488281 -46.496094 L 21.488281 -41.265625 L 2.511719 -41.265625 C 3.046875 -41.265625 3.523438 -41.472656 3.941406 -41.890625 C 4.359375 -42.308594 4.570312 -42.785156 4.570312 -43.324219 L 4.570312 -43.242188 L 4.425781 -40.863281 L 1.8125 -41.019531 L 4.429688 -41.019531 L 4.429688 -29.023438 L 1.8125 -29.023438 L 4.429688 -29.082031 C 4.476562 -27.054688 4.542969 -25.027344 4.636719 -23 C 4.730469 -20.933594 4.800781 -18.867188 4.847656 -16.804688 L 2.234375 -16.742188 L 4.84375 -16.875 C 4.894531 -15.898438 4.917969 -14.589844 4.917969 -12.941406 L 4.917969 -7.917969 C 4.917969 -6.160156 4.90625 -4.597656 4.882812 -3.234375 C 4.855469 -1.6875 4.773438 -0.628906 4.632812 -0.0625 L 2.09375 -0.699219 L 4.695312 -0.4375 C 4.75 -0.972656 4.570312 -1.46875 4.160156 -1.925781 C 3.910156 -2.203125 3.613281 -2.398438 3.273438 -2.515625 C 3.082031 -2.582031 2.898438 -2.617188 2.722656 -2.617188 L 11.789062 -2.617188 C 13.164062 -2.617188 14.316406 -2.628906 15.253906 -2.652344 L 16.78125 -2.6875 L 18.765625 -2.6875 C 19.628906 -2.6875 20.488281 -2.699219 21.347656 -2.71875 C 22.160156 -2.742188 22.738281 -2.769531 23.082031 -2.808594 L 23.226562 -2.824219 L 23.371094 -2.824219 C 23.757812 -2.824219 24.578125 -2.949219 25.832031 -3.195312 C 27.085938 -3.441406 28.367188 -3.832031 29.675781 -4.363281 C 30.695312 -4.792969 31.742188 -5.402344 32.808594 -6.1875 C 33.902344 -6.996094 34.648438 -7.613281 35.046875 -8.046875 L 36.976562 -6.277344 L 34.945312 -7.929688 C 35.796875 -8.972656 36.414062 -9.996094 36.804688 -10.996094 L 37.535156 -12.878906 L 39.976562 -11.929688 L 37.492188 -12.757812 C 37.710938 -13.40625 37.890625 -14.472656 38.035156 -15.949219 C 38.1875 -17.539062 38.265625 -19.058594 38.265625 -20.511719 Z M 20.167969 -18.1875 C 20.238281 -18.566406 20.28125 -19.164062 20.300781 -19.980469 C 20.324219 -20.894531 20.324219 -21.828125 20.300781 -22.785156 C 20.28125 -23.734375 20.246094 -24.460938 20.207031 -24.96875 L 22.8125 -25.183594 L 20.214844 -24.886719 C 20.140625 -25.542969 20.042969 -26.054688 19.929688 -26.429688 C 19.890625 -26.546875 19.859375 -26.636719 19.828125 -26.695312 C 19.84375 -26.664062 19.882812 -26.617188 19.941406 -26.554688 C 19.902344 -26.59375 19.871094 -26.625 19.847656 -26.644531 C 19.851562 -26.640625 19.867188 -26.632812 19.890625 -26.617188 C 20.0625 -26.523438 20.269531 -26.476562 20.511719 -26.476562 C 20.769531 -26.476562 21.023438 -26.546875 21.277344 -26.695312 C 21.558594 -26.855469 21.769531 -27.070312 21.910156 -27.335938 C 21.964844 -27.433594 21.996094 -27.515625 22.015625 -27.582031 C 22.007812 -27.550781 22 -27.5 21.988281 -27.425781 C 21.957031 -27.171875 21.941406 -26.820312 21.941406 -26.371094 L 21.941406 -17.789062 C 21.941406 -17.113281 21.984375 -16.539062 22.070312 -16.070312 C 22.019531 -16.351562 21.851562 -16.617188 21.574219 -16.859375 C 21.261719 -17.128906 20.929688 -17.265625 20.582031 -17.265625 C 20.511719 -17.265625 20.417969 -17.238281 20.296875 -17.179688 C 20.070312 -17.074219 19.894531 -16.917969 19.761719 -16.710938 C 19.871094 -16.878906 20.007812 -17.386719 20.175781 -18.234375 Z M 25.308594 -17.207031 C 25.011719 -15.726562 24.640625 -14.628906 24.1875 -13.917969 C 23.777344 -13.269531 23.230469 -12.78125 22.539062 -12.453125 C 21.953125 -12.171875 21.300781 -12.035156 20.582031 -12.035156 C 19.625 -12.035156 18.8125 -12.328125 18.136719 -12.914062 C 17.5 -13.46875 17.09375 -14.203125 16.925781 -15.117188 C 16.78125 -15.902344 16.707031 -16.792969 16.707031 -17.789062 L 16.707031 -26.371094 C 16.707031 -27.921875 16.902344 -29.066406 17.296875 -29.800781 C 17.625 -30.414062 18.078125 -30.890625 18.664062 -31.226562 C 19.21875 -31.546875 19.835938 -31.707031 20.511719 -31.707031 C 21.675781 -31.707031 22.75 -31.191406 23.730469 -30.164062 C 24.597656 -29.25 25.160156 -27.691406 25.410156 -25.480469 L 25.417969 -25.441406 L 25.421875 -25.402344 C 25.472656 -24.792969 25.507812 -23.960938 25.53125 -22.910156 C 25.558594 -21.867188 25.558594 -20.847656 25.53125 -19.855469 C 25.507812 -18.765625 25.433594 -17.898438 25.316406 -17.253906 Z M 25.308594 -17.207031 "/></g></g></g></g><g fill="#ffffff" fill-opacity="1"><g transform="translate(1.541806, 56.471526)"><g><path d="M 40.875 -20.515625 C 40.875 -18.972656 40.789062 -17.363281 40.625 -15.6875 C 40.46875 -14.019531 40.25 -12.769531 39.96875 -11.9375 C 39.96875 -11.9375 39.722656 -11.304688 39.234375 -10.046875 C 38.753906 -8.785156 38 -7.53125 36.96875 -6.28125 C 36.457031 -5.71875 35.585938 -4.984375 34.359375 -4.078125 C 33.128906 -3.171875 31.910156 -2.460938 30.703125 -1.953125 C 29.210938 -1.347656 27.753906 -0.90625 26.328125 -0.625 C 24.910156 -0.34375 23.925781 -0.203125 23.375 -0.203125 C 22.957031 -0.160156 22.304688 -0.125 21.421875 -0.09375 C 20.535156 -0.0703125 19.648438 -0.0625 18.765625 -0.0625 C 17.878906 -0.0625 17.226562 -0.0625 16.8125 -0.0625 C 16.769531 -0.0625 16.269531 -0.0507812 15.3125 -0.03125 C 14.363281 -0.0078125 13.191406 0 11.796875 0 C 10.398438 0 9.003906 0 7.609375 0 C 6.210938 0 5.046875 0 4.109375 0 C 3.179688 0 2.71875 0 2.71875 0 C 2.25 0 2.039062 -0.234375 2.09375 -0.703125 C 2.1875 -1.066406 2.242188 -1.921875 2.265625 -3.265625 C 2.285156 -4.617188 2.296875 -6.164062 2.296875 -7.90625 C 2.296875 -9.65625 2.296875 -11.332031 2.296875 -12.9375 C 2.296875 -14.539062 2.273438 -15.8125 2.234375 -16.75 C 2.179688 -18.789062 2.109375 -20.832031 2.015625 -22.875 C 1.929688 -24.925781 1.863281 -26.972656 1.8125 -29.015625 L 1.8125 -41.015625 C 1.863281 -41.765625 1.910156 -42.535156 1.953125 -43.328125 C 1.953125 -43.691406 2.140625 -43.875 2.515625 -43.875 L 21.484375 -43.875 C 21.484375 -43.875 21.257812 -43.875 20.8125 -43.875 C 20.375 -43.875 19.96875 -43.875 19.59375 -43.875 C 19.226562 -43.875 19.140625 -43.875 19.328125 -43.875 C 19.515625 -43.875 20.257812 -43.875 21.5625 -43.875 C 24.164062 -43.875 26.441406 -43.609375 28.390625 -43.078125 C 30.347656 -42.546875 32.375 -41.421875 34.46875 -39.703125 C 35.957031 -38.535156 37.109375 -37.132812 37.921875 -35.5 C 38.734375 -33.875 39.3125 -32.375 39.65625 -31 C 40.007812 -29.632812 40.234375 -28.695312 40.328125 -28.1875 C 40.421875 -27.675781 40.515625 -26.90625 40.609375 -25.875 C 40.703125 -24.851562 40.769531 -23.832031 40.8125 -22.8125 C 40.851562 -21.789062 40.875 -21.023438 40.875 -20.515625 Z M 22.75 -17.71875 C 22.84375 -18.226562 22.898438 -18.957031 22.921875 -19.90625 C 22.941406 -20.863281 22.941406 -21.84375 22.921875 -22.84375 C 22.898438 -23.84375 22.863281 -24.625 22.8125 -25.1875 C 22.625 -26.8125 22.296875 -27.867188 21.828125 -28.359375 C 21.367188 -28.847656 20.929688 -29.09375 20.515625 -29.09375 C 20.097656 -29.09375 19.796875 -28.914062 19.609375 -28.5625 C 19.421875 -28.21875 19.328125 -27.488281 19.328125 -26.375 L 19.328125 -17.796875 C 19.328125 -16.953125 19.382812 -16.21875 19.5 -15.59375 C 19.613281 -14.96875 19.972656 -14.65625 20.578125 -14.65625 C 21.234375 -14.65625 21.695312 -14.875 21.96875 -15.3125 C 22.25 -15.75 22.507812 -16.550781 22.75 -17.71875 Z M 22.75 -17.71875 "/></g></g></g></g></g><g transform="matrix(1, 0, 0, 1, 185, 159)"><g clip-path="url(#6a15f9e119)"><g fill="#1d0061" fill-opacity="1"><g transform="translate(2.499992, 56.471526)"><g><path d="M 42.136719 2.617188 L 19.394531 2.617188 C 18.464844 2.617188 17.710938 2.261719 17.140625 1.546875 C 16.714844 1.011719 16.5 0.378906 16.5 -0.347656 L 16.5 -0.417969 L 16.503906 -0.484375 C 16.550781 -1.40625 16.644531 -2.636719 16.789062 -4.183594 C 16.929688 -5.707031 17.082031 -7.242188 17.246094 -8.789062 L 17.679688 -12.816406 L 17.890625 -13.238281 C 18.261719 -13.976562 18.859375 -14.484375 19.683594 -14.761719 C 20.089844 -14.894531 20.484375 -14.964844 20.859375 -14.964844 L 21.476562 -14.964844 L 22.03125 -14.6875 C 21.777344 -14.816406 21.550781 -14.886719 21.355469 -14.902344 C 21.421875 -14.898438 21.535156 -14.894531 21.695312 -14.894531 L 24.070312 -14.894531 L 24.070312 -12.277344 L 22.953125 -14.644531 L 23.546875 -14.925781 C 23.269531 -14.792969 23.042969 -14.585938 22.871094 -14.300781 C 22.714844 -14.042969 22.636719 -13.789062 22.636719 -13.535156 L 25.253906 -13.535156 L 22.6875 -13.019531 C 22.632812 -13.300781 22.519531 -14.035156 22.351562 -15.222656 L 21.792969 -19.128906 C 21.582031 -20.613281 21.390625 -22.039062 21.226562 -23.40625 C 21.058594 -24.796875 20.949219 -25.839844 20.902344 -26.53125 L 20.898438 -26.566406 L 20.898438 -26.601562 C 20.859375 -27.382812 20.765625 -28.007812 20.609375 -28.472656 L 20.609375 -28.488281 C 20.65625 -28.40625 20.71875 -28.320312 20.804688 -28.234375 C 21.140625 -27.898438 21.554688 -27.730469 22.046875 -27.730469 L 21.953125 -27.730469 L 21.859375 -27.738281 C 22.144531 -27.71875 22.429688 -27.804688 22.707031 -27.996094 C 22.925781 -28.148438 23.066406 -28.308594 23.132812 -28.476562 C 22.949219 -28 22.847656 -27.675781 22.828125 -27.511719 C 22.679688 -26.4375 22.441406 -24.953125 22.109375 -23.058594 C 21.785156 -21.1875 21.410156 -19.132812 20.988281 -16.890625 C 20.574219 -14.675781 20.179688 -12.457031 19.8125 -10.242188 C 19.445312 -8.035156 19.132812 -6.023438 18.882812 -4.207031 C 18.636719 -2.449219 18.492188 -1.121094 18.449219 -0.222656 L 15.835938 -0.347656 L 18.453125 -0.347656 C 18.453125 0.25 18.3125 0.785156 18.027344 1.257812 C 17.769531 1.6875 17.421875 2.023438 16.988281 2.265625 C 16.566406 2.5 16.113281 2.617188 15.628906 2.617188 L 1.535156 2.617188 C 1.042969 2.617188 0.585938 2.5 0.164062 2.269531 C -0.347656 1.992188 -0.734375 1.589844 -0.996094 1.066406 C -1.285156 0.488281 -1.371094 -0.148438 -1.253906 -0.847656 L -1.238281 -0.953125 L -1.210938 -1.054688 C -1.195312 -1.125 -1.179688 -1.207031 -1.171875 -1.300781 C -1.132812 -1.625 -1.078125 -1.9375 -1.003906 -2.238281 L 1.535156 -1.605469 L -1.019531 -2.171875 C -0.929688 -2.574219 -0.746094 -3.457031 -0.472656 -4.8125 L 0.472656 -9.449219 L 1.480469 -14.4375 C 1.816406 -16.089844 2.109375 -17.382812 2.351562 -18.316406 L 4.882812 -17.648438 L 2.296875 -18.046875 C 2.394531 -18.671875 2.570312 -19.714844 2.832031 -21.175781 C 3.082031 -22.605469 3.359375 -24.253906 3.660156 -26.121094 L 4.601562 -31.917969 C 4.925781 -33.882812 5.214844 -35.738281 5.46875 -37.488281 C 5.726562 -39.269531 5.949219 -40.746094 6.136719 -41.921875 C 6.300781 -42.949219 6.382812 -43.507812 6.382812 -43.601562 L 6.382812 -43.925781 L 6.460938 -44.238281 C 6.601562 -44.796875 6.867188 -45.273438 7.253906 -45.660156 C 7.8125 -46.21875 8.488281 -46.496094 9.277344 -46.496094 L 34.671875 -46.496094 C 35.160156 -46.496094 35.613281 -46.375 36.035156 -46.136719 C 36.371094 -45.945312 36.652344 -45.695312 36.886719 -45.382812 C 37.132812 -45.054688 37.3125 -44.671875 37.421875 -44.238281 L 37.433594 -44.175781 L 37.449219 -44.117188 C 37.542969 -43.628906 37.722656 -42.644531 37.980469 -41.15625 L 38.820312 -36.226562 L 39.695312 -31.023438 C 39.96875 -29.402344 40.195312 -28.136719 40.378906 -27.234375 L 40.382812 -27.203125 L 40.390625 -27.171875 C 40.71875 -25.289062 41.023438 -23.40625 41.304688 -21.527344 L 42.144531 -15.945312 L 39.554688 -15.558594 L 42.09375 -16.191406 C 42.207031 -15.742188 42.351562 -14.957031 42.523438 -13.832031 C 42.683594 -12.816406 42.886719 -11.660156 43.136719 -10.367188 C 43.394531 -9.023438 43.644531 -7.671875 43.878906 -6.304688 C 44.105469 -4.992188 44.320312 -3.863281 44.519531 -2.921875 C 44.742188 -1.882812 44.882812 -1.175781 44.9375 -0.789062 L 42.347656 -0.417969 L 44.828125 -1.246094 C 45.105469 -0.421875 45.0625 0.347656 44.703125 1.066406 C 44.414062 1.648438 43.972656 2.074219 43.378906 2.347656 C 42.992188 2.527344 42.578125 2.617188 42.136719 2.617188 Z M 42.136719 -2.617188 C 41.8125 -2.617188 41.496094 -2.542969 41.183594 -2.402344 C 40.667969 -2.164062 40.28125 -1.785156 40.023438 -1.273438 C 39.734375 -0.699219 39.683594 -0.136719 39.863281 0.410156 L 39.789062 0.183594 L 39.757812 -0.046875 C 39.71875 -0.3125 39.601562 -0.90625 39.40625 -1.824219 C 39.1875 -2.835938 38.960938 -4.03125 38.722656 -5.414062 C 38.492188 -6.746094 38.25 -8.066406 38 -9.375 C 37.738281 -10.734375 37.523438 -11.949219 37.355469 -13.027344 C 37.203125 -13.996094 37.089844 -14.628906 37.019531 -14.921875 L 36.988281 -15.042969 L 36.132812 -20.75 C 35.855469 -22.589844 35.558594 -24.429688 35.234375 -26.269531 L 37.8125 -26.71875 L 35.246094 -26.207031 C 35.054688 -27.164062 34.816406 -28.480469 34.535156 -30.160156 L 33.664062 -35.351562 L 32.828125 -40.257812 C 32.574219 -41.699219 32.40625 -42.644531 32.316406 -43.089844 L 34.882812 -43.601562 L 32.34375 -42.96875 C 32.40625 -42.71875 32.523438 -42.476562 32.703125 -42.242188 C 32.902344 -41.976562 33.148438 -41.761719 33.441406 -41.59375 C 33.820312 -41.375 34.234375 -41.265625 34.671875 -41.265625 L 9.277344 -41.265625 C 9.929688 -41.265625 10.488281 -41.496094 10.953125 -41.960938 C 11.25 -42.257812 11.445312 -42.59375 11.539062 -42.96875 L 9 -43.601562 L 11.617188 -43.601562 C 11.617188 -43.230469 11.511719 -42.394531 11.304688 -41.097656 C 11.121094 -39.945312 10.902344 -38.492188 10.648438 -36.738281 C 10.390625 -34.957031 10.097656 -33.066406 9.769531 -31.078125 L 8.828125 -25.292969 C 8.523438 -23.394531 8.242188 -21.71875 7.984375 -20.261719 C 7.730469 -18.839844 7.558594 -17.835938 7.46875 -17.253906 L 7.449219 -17.117188 L 7.414062 -16.984375 C 7.195312 -16.148438 6.925781 -14.953125 6.609375 -13.398438 L 5.597656 -8.410156 L 4.65625 -3.769531 C 4.375 -2.382812 4.183594 -1.472656 4.089844 -1.035156 L 4.082031 -1.003906 L 4.074219 -0.96875 C 4.054688 -0.898438 4.039062 -0.816406 4.03125 -0.722656 C 3.996094 -0.398438 3.9375 -0.0820312 3.863281 0.214844 L 1.324219 -0.417969 L 3.90625 0.0117188 C 3.976562 -0.410156 3.902344 -0.835938 3.683594 -1.273438 C 3.457031 -1.730469 3.117188 -2.078125 2.667969 -2.324219 C 2.3125 -2.519531 1.933594 -2.617188 1.535156 -2.617188 L 15.628906 -2.617188 C 15.210938 -2.617188 14.816406 -2.515625 14.449219 -2.308594 C 14.066406 -2.097656 13.761719 -1.804688 13.539062 -1.433594 C 13.328125 -1.078125 13.21875 -0.714844 13.21875 -0.347656 L 13.21875 -0.410156 L 13.222656 -0.472656 C 13.273438 -1.527344 13.433594 -3.015625 13.699219 -4.929688 C 13.957031 -6.789062 14.273438 -8.847656 14.652344 -11.105469 C 15.027344 -13.355469 15.425781 -15.605469 15.847656 -17.851562 C 16.261719 -20.074219 16.632812 -22.113281 16.957031 -23.960938 C 17.277344 -25.789062 17.503906 -27.1875 17.636719 -28.160156 C 17.707031 -28.738281 17.910156 -29.464844 18.238281 -30.332031 C 18.558594 -31.175781 19.054688 -31.832031 19.726562 -32.296875 C 20.460938 -32.804688 21.292969 -33.023438 22.230469 -32.957031 L 22.046875 -30.347656 L 22.046875 -32.964844 C 23 -32.964844 23.820312 -32.621094 24.503906 -31.9375 C 24.972656 -31.46875 25.328125 -30.867188 25.574219 -30.128906 C 25.882812 -29.199219 26.066406 -28.105469 26.125 -26.839844 L 23.511719 -26.71875 L 26.121094 -26.90625 C 26.164062 -26.296875 26.265625 -25.339844 26.421875 -24.03125 C 26.582031 -22.703125 26.765625 -21.316406 26.972656 -19.867188 L 27.53125 -15.960938 C 27.6875 -14.871094 27.78125 -14.230469 27.820312 -14.046875 L 27.871094 -13.792969 L 27.871094 -13.535156 C 27.871094 -12.8125 27.695312 -12.164062 27.34375 -11.582031 C 26.972656 -10.972656 26.449219 -10.507812 25.777344 -10.191406 L 24.652344 -9.664062 L 21.695312 -9.664062 C 20.820312 -9.664062 20.152344 -9.777344 19.6875 -10.007812 L 20.859375 -12.347656 L 20.859375 -9.730469 C 21.050781 -9.730469 21.207031 -9.753906 21.335938 -9.796875 C 21.882812 -9.976562 22.296875 -10.347656 22.570312 -10.898438 L 20.230469 -12.070312 L 22.832031 -11.789062 L 22.449219 -8.234375 C 22.289062 -6.710938 22.136719 -5.199219 22 -3.699219 C 21.863281 -2.222656 21.773438 -1.0625 21.726562 -0.210938 L 19.117188 -0.347656 L 21.730469 -0.347656 C 21.730469 -0.84375 21.5625 -1.300781 21.226562 -1.722656 C 20.75 -2.316406 20.140625 -2.617188 19.394531 -2.617188 Z M 42.136719 -2.617188 "/></g></g></g><g fill="#ffffff" fill-opacity="1"><g transform="translate(2.499992, 56.471526)"><g><path d="M 42.140625 0 L 19.390625 0 C 19.203125 0 19.109375 -0.113281 19.109375 -0.34375 C 19.160156 -1.226562 19.253906 -2.425781 19.390625 -3.9375 C 19.535156 -5.445312 19.6875 -6.96875 19.84375 -8.5 C 20.007812 -10.039062 20.140625 -11.226562 20.234375 -12.0625 C 20.273438 -12.15625 20.363281 -12.222656 20.5 -12.265625 C 20.644531 -12.316406 20.765625 -12.34375 20.859375 -12.34375 C 20.953125 -12.300781 21.226562 -12.28125 21.6875 -12.28125 C 22.15625 -12.28125 22.632812 -12.28125 23.125 -12.28125 C 23.613281 -12.28125 23.925781 -12.28125 24.0625 -12.28125 C 24.0625 -12.28125 24.257812 -12.375 24.65625 -12.5625 C 25.050781 -12.75 25.25 -13.070312 25.25 -13.53125 C 25.207031 -13.769531 25.101562 -14.457031 24.9375 -15.59375 C 24.78125 -16.726562 24.59375 -18.03125 24.375 -19.5 C 24.164062 -20.96875 23.976562 -22.375 23.8125 -23.71875 C 23.65625 -25.070312 23.554688 -26.070312 23.515625 -26.71875 C 23.460938 -27.738281 23.320312 -28.597656 23.09375 -29.296875 C 22.863281 -29.992188 22.515625 -30.34375 22.046875 -30.34375 C 21.390625 -30.394531 20.929688 -30.082031 20.671875 -29.40625 C 20.421875 -28.726562 20.273438 -28.207031 20.234375 -27.84375 C 20.085938 -26.8125 19.851562 -25.363281 19.53125 -23.5 C 19.207031 -21.644531 18.835938 -19.597656 18.421875 -17.359375 C 18.003906 -15.128906 17.609375 -12.898438 17.234375 -10.671875 C 16.859375 -8.441406 16.539062 -6.40625 16.28125 -4.5625 C 16.03125 -2.726562 15.882812 -1.320312 15.84375 -0.34375 C 15.84375 -0.113281 15.769531 0 15.625 0 L 1.53125 0 C 1.34375 0 1.273438 -0.140625 1.328125 -0.421875 C 1.367188 -0.609375 1.398438 -0.804688 1.421875 -1.015625 C 1.453125 -1.222656 1.488281 -1.421875 1.53125 -1.609375 C 1.625 -2.023438 1.8125 -2.914062 2.09375 -4.28125 C 2.375 -5.65625 2.6875 -7.203125 3.03125 -8.921875 C 3.382812 -10.648438 3.722656 -12.316406 4.046875 -13.921875 C 4.367188 -15.523438 4.648438 -16.769531 4.890625 -17.65625 C 4.972656 -18.257812 5.144531 -19.28125 5.40625 -20.71875 C 5.664062 -22.164062 5.945312 -23.828125 6.25 -25.703125 C 6.550781 -27.585938 6.863281 -29.519531 7.1875 -31.5 C 7.507812 -33.476562 7.796875 -35.347656 8.046875 -37.109375 C 8.304688 -38.878906 8.53125 -40.34375 8.71875 -41.5 C 8.90625 -42.664062 9 -43.367188 9 -43.609375 C 9.039062 -43.785156 9.132812 -43.875 9.28125 -43.875 L 34.671875 -43.875 C 34.765625 -43.875 34.832031 -43.785156 34.875 -43.609375 C 34.96875 -43.140625 35.144531 -42.171875 35.40625 -40.703125 C 35.664062 -39.242188 35.945312 -37.601562 36.25 -35.78125 C 36.550781 -33.96875 36.835938 -32.234375 37.109375 -30.578125 C 37.390625 -28.929688 37.625 -27.644531 37.8125 -26.71875 C 38.132812 -24.851562 38.4375 -22.988281 38.71875 -21.125 C 39 -19.269531 39.28125 -17.414062 39.5625 -15.5625 C 39.65625 -15.1875 39.78125 -14.472656 39.9375 -13.421875 C 40.101562 -12.378906 40.3125 -11.195312 40.5625 -9.875 C 40.820312 -8.550781 41.066406 -7.210938 41.296875 -5.859375 C 41.535156 -4.515625 41.757812 -3.351562 41.96875 -2.375 C 42.175781 -1.394531 42.300781 -0.742188 42.34375 -0.421875 C 42.4375 -0.140625 42.367188 0 42.140625 0 Z M 42.140625 0 "/></g></g></g></g></g><g transform="matrix(1, 0, 0, 1, 162, 159)"><g clip-path="url(#0ef6047e03)"><g clip-path="url(#af60879d0c)"><g fill="#1d0061" fill-opacity="1"><g transform="translate(1.536791, 56.471526)"><g><path d="M 43.289062 -43.742188 C 43.289062 -41.925781 43.332031 -40.09375 43.425781 -38.253906 C 43.523438 -36.285156 43.523438 -34.328125 43.425781 -32.378906 L 43.285156 -29.6875 C 43.242188 -28.871094 43.242188 -28.039062 43.285156 -27.199219 L 43.289062 -27.132812 L 43.289062 -27.066406 C 43.289062 -26.246094 43.050781 -25.539062 42.574219 -24.945312 C 42.039062 -24.277344 41.328125 -23.886719 40.4375 -23.773438 C 39.566406 -23.664062 38.566406 -23.625 37.4375 -23.652344 C 36.480469 -23.671875 35.582031 -23.671875 34.742188 -23.652344 C 34.433594 -23.640625 34.199219 -23.625 34.039062 -23.59375 L 34.03125 -23.597656 C 34.140625 -23.636719 34.257812 -23.695312 34.378906 -23.773438 C 34.425781 -23.804688 34.460938 -23.832031 34.480469 -23.851562 C 34.460938 -23.832031 34.433594 -23.800781 34.394531 -23.761719 C 34.484375 -23.859375 34.546875 -23.953125 34.585938 -24.042969 C 34.589844 -24.054688 34.59375 -24.058594 34.59375 -24.058594 C 34.589844 -24.042969 34.582031 -24.019531 34.574219 -23.988281 L 32.023438 -24.558594 L 34.617188 -24.230469 C 34.582031 -23.9375 34.539062 -23.199219 34.496094 -22.019531 C 34.453125 -20.792969 34.429688 -19.328125 34.429688 -17.617188 L 34.429688 -2.652344 C 34.429688 -2.125 34.433594 -1.722656 34.445312 -1.441406 C 34.449219 -1.328125 34.453125 -1.25 34.457031 -1.199219 C 34.449219 -1.304688 34.417969 -1.4375 34.363281 -1.59375 L 34.5 -1.191406 L 34.5 -0.765625 C 34.5 0.109375 34.25 0.855469 33.75 1.464844 C 33.121094 2.234375 32.289062 2.617188 31.253906 2.617188 L 11.789062 2.617188 C 10.828125 2.617188 10.035156 2.269531 9.410156 1.574219 C 8.921875 1.035156 8.640625 0.363281 8.558594 -0.4375 L 8.546875 -0.566406 L 8.546875 -0.699219 C 8.546875 -1.316406 8.558594 -2.355469 8.582031 -3.808594 C 8.605469 -5.257812 8.640625 -6.894531 8.6875 -8.71875 L 8.824219 -14.125 L 8.929688 -18.753906 C 8.949219 -19.925781 8.945312 -20.636719 8.914062 -20.882812 C 8.804688 -21.710938 8.761719 -22.546875 8.792969 -23.386719 C 8.789062 -23.328125 8.800781 -23.289062 8.824219 -23.265625 L 10.675781 -25.113281 L 8.9375 -23.160156 C 8.785156 -23.292969 8.636719 -23.386719 8.484375 -23.433594 C 8.191406 -23.535156 7.886719 -23.597656 7.578125 -23.625 C 7.21875 -23.664062 6.671875 -23.683594 5.929688 -23.683594 L 2.652344 -23.683594 C 1.664062 -23.683594 0.859375 -24.03125 0.234375 -24.726562 C -0.316406 -25.339844 -0.59375 -26.097656 -0.59375 -27 L -0.59375 -27.941406 C -0.59375 -28.542969 -0.605469 -29.214844 -0.625 -29.953125 C -0.648438 -30.652344 -0.679688 -31.175781 -0.714844 -31.523438 L -0.722656 -31.574219 L -0.726562 -31.625 C -0.773438 -32.304688 -0.824219 -33.277344 -0.871094 -34.539062 C -0.917969 -35.804688 -0.941406 -37.117188 -0.941406 -38.476562 L -0.941406 -43.460938 C -0.941406 -43.945312 -0.835938 -44.394531 -0.625 -44.816406 C -0.394531 -45.28125 -0.0585938 -45.660156 0.378906 -45.953125 C 0.925781 -46.316406 1.566406 -46.496094 2.300781 -46.496094 L 41.148438 -46.496094 L 41.773438 -46.1875 C 42.210938 -45.96875 42.5625 -45.65625 42.832031 -45.253906 C 43.136719 -44.796875 43.289062 -44.292969 43.289062 -43.742188 Z M 38.054688 -43.742188 C 38.054688 -43.238281 38.195312 -42.773438 38.476562 -42.351562 C 38.722656 -41.984375 39.042969 -41.703125 39.433594 -41.507812 L 39.363281 -41.542969 L 40.53125 -43.882812 L 40.53125 -41.265625 L 2.300781 -41.265625 C 2.621094 -41.265625 2.949219 -41.375 3.28125 -41.601562 C 3.617188 -41.820312 3.871094 -42.113281 4.054688 -42.476562 C 4.210938 -42.792969 4.289062 -43.121094 4.289062 -43.460938 L 4.289062 -38.476562 C 4.289062 -37.183594 4.3125 -35.9375 4.359375 -34.738281 C 4.402344 -33.53125 4.449219 -32.621094 4.492188 -32 L 1.882812 -31.8125 L 4.484375 -32.101562 C 4.539062 -31.613281 4.578125 -30.949219 4.601562 -30.113281 C 4.628906 -29.320312 4.640625 -28.59375 4.640625 -27.941406 L 4.640625 -27 C 4.640625 -27.433594 4.46875 -27.84375 4.125 -28.226562 C 3.710938 -28.6875 3.21875 -28.917969 2.652344 -28.917969 L 5.929688 -28.917969 C 6.863281 -28.917969 7.570312 -28.890625 8.050781 -28.835938 C 8.761719 -28.773438 9.460938 -28.625 10.140625 -28.398438 C 10.96875 -28.125 11.726562 -27.679688 12.410156 -27.070312 L 12.46875 -27.019531 L 12.523438 -26.964844 C 13.570312 -25.917969 14.070312 -24.667969 14.019531 -23.214844 C 14.003906 -22.660156 14.03125 -22.101562 14.105469 -21.53125 C 14.167969 -21.039062 14.1875 -20.074219 14.160156 -18.636719 L 14.058594 -13.988281 L 13.917969 -8.582031 C 13.871094 -6.777344 13.835938 -5.160156 13.8125 -3.726562 C 13.789062 -2.296875 13.777344 -1.289062 13.777344 -0.699219 L 11.164062 -0.699219 L 13.765625 -0.957031 C 13.730469 -1.292969 13.578125 -1.617188 13.296875 -1.925781 C 12.882812 -2.386719 12.378906 -2.617188 11.789062 -2.617188 L 31.253906 -2.617188 C 30.636719 -2.617188 30.117188 -2.359375 29.699219 -1.847656 C 29.410156 -1.496094 29.265625 -1.132812 29.265625 -0.765625 L 31.882812 -0.765625 L 29.398438 0.0585938 C 29.265625 -0.347656 29.195312 -1.25 29.195312 -2.652344 L 29.195312 -17.617188 C 29.195312 -19.390625 29.21875 -20.925781 29.265625 -22.210938 C 29.316406 -23.542969 29.371094 -24.433594 29.425781 -24.882812 L 29.441406 -25.003906 L 29.46875 -25.125 C 29.660156 -25.984375 29.996094 -26.6875 30.484375 -27.238281 C 30.820312 -27.613281 31.152344 -27.910156 31.476562 -28.128906 C 32.175781 -28.59375 33.21875 -28.84375 34.605469 -28.882812 C 35.53125 -28.90625 36.515625 -28.90625 37.558594 -28.882812 C 38.429688 -28.863281 39.171875 -28.890625 39.789062 -28.964844 C 39.273438 -28.902344 38.839844 -28.652344 38.488281 -28.214844 C 38.199219 -27.851562 38.054688 -27.472656 38.054688 -27.066406 L 40.671875 -27.066406 L 38.058594 -26.9375 C 38.007812 -27.957031 38.007812 -28.964844 38.058594 -29.960938 L 38.199219 -32.640625 C 38.289062 -34.414062 38.289062 -36.199219 38.199219 -37.996094 C 38.105469 -39.921875 38.054688 -41.839844 38.054688 -43.742188 Z M 38.054688 -43.742188 "/></g></g></g></g><g fill="#ffffff" fill-opacity="1"><g transform="translate(1.536791, 56.471526)"><g><path d="M 40.671875 -43.75 C 40.671875 -41.882812 40.71875 -40.007812 40.8125 -38.125 C 40.90625 -36.238281 40.90625 -34.367188 40.8125 -32.515625 C 40.769531 -31.628906 40.722656 -30.734375 40.671875 -29.828125 C 40.628906 -28.921875 40.628906 -28 40.671875 -27.0625 C 40.671875 -26.644531 40.484375 -26.414062 40.109375 -26.375 C 39.367188 -26.28125 38.5 -26.242188 37.5 -26.265625 C 36.5 -26.285156 35.554688 -26.285156 34.671875 -26.265625 C 33.785156 -26.242188 33.203125 -26.140625 32.921875 -25.953125 C 32.785156 -25.859375 32.625 -25.707031 32.4375 -25.5 C 32.25 -25.289062 32.109375 -24.976562 32.015625 -24.5625 C 31.972656 -24.1875 31.925781 -23.367188 31.875 -22.109375 C 31.832031 -20.859375 31.8125 -19.359375 31.8125 -17.609375 C 31.8125 -15.867188 31.8125 -14.054688 31.8125 -12.171875 C 31.8125 -10.285156 31.8125 -8.503906 31.8125 -6.828125 C 31.8125 -5.160156 31.8125 -3.769531 31.8125 -2.65625 C 31.8125 -1.539062 31.835938 -0.910156 31.890625 -0.765625 C 31.890625 -0.253906 31.675781 0 31.25 0 L 11.796875 0 C 11.421875 0 11.207031 -0.234375 11.15625 -0.703125 C 11.15625 -1.304688 11.164062 -2.328125 11.1875 -3.765625 C 11.21875 -5.210938 11.253906 -6.84375 11.296875 -8.65625 C 11.347656 -10.46875 11.394531 -12.269531 11.4375 -14.0625 C 11.488281 -15.851562 11.523438 -17.398438 11.546875 -18.703125 C 11.566406 -20.003906 11.554688 -20.835938 11.515625 -21.203125 C 11.421875 -21.898438 11.382812 -22.597656 11.40625 -23.296875 C 11.425781 -23.992188 11.179688 -24.597656 10.671875 -25.109375 C 10.253906 -25.484375 9.800781 -25.75 9.3125 -25.90625 C 8.820312 -26.070312 8.320312 -26.179688 7.8125 -26.234375 C 7.394531 -26.273438 6.765625 -26.296875 5.921875 -26.296875 C 5.085938 -26.296875 4.332031 -26.296875 3.65625 -26.296875 C 2.988281 -26.296875 2.65625 -26.296875 2.65625 -26.296875 C 2.226562 -26.296875 2.015625 -26.53125 2.015625 -27 C 2.015625 -27 2.015625 -27.3125 2.015625 -27.9375 C 2.015625 -28.570312 2.003906 -29.269531 1.984375 -30.03125 C 1.960938 -30.800781 1.929688 -31.394531 1.890625 -31.8125 C 1.835938 -32.46875 1.785156 -33.410156 1.734375 -34.640625 C 1.691406 -35.867188 1.671875 -37.144531 1.671875 -38.46875 C 1.671875 -39.800781 1.671875 -40.941406 1.671875 -41.890625 C 1.671875 -42.847656 1.671875 -43.375 1.671875 -43.46875 C 1.671875 -43.738281 1.878906 -43.875 2.296875 -43.875 L 40.53125 -43.875 C 40.53125 -43.875 40.550781 -43.863281 40.59375 -43.84375 C 40.644531 -43.820312 40.671875 -43.789062 40.671875 -43.75 Z M 40.671875 -43.75 "/></g></g></g></g></g><g transform="matrix(1, 0, 0, 1, 258, 159)"><g clip-path="url(#903f979f45)"><g fill="#1d0061" fill-opacity="1"><g transform="translate(1.125661, 56.471526)"><g><path d="M 43.289062 -11.582031 L 43.289062 -7.742188 C 43.289062 -7.398438 43.300781 -6.867188 43.320312 -6.152344 C 43.34375 -5.425781 43.378906 -4.644531 43.425781 -3.804688 C 43.472656 -2.929688 43.507812 -2.183594 43.53125 -1.566406 L 43.566406 -0.609375 L 43.566406 -0.558594 C 43.566406 0.351562 43.265625 1.105469 42.660156 1.710938 C 42.058594 2.3125 41.300781 2.617188 40.394531 2.617188 L 2.652344 2.617188 C 1.566406 2.617188 0.6875 2.257812 0.0195312 1.535156 C -0.648438 0.816406 -0.941406 -0.0820312 -0.867188 -1.164062 L 1.742188 -0.976562 L -0.871094 -1.082031 C -0.730469 -4.539062 -0.652344 -8.011719 -0.628906 -11.492188 L -0.523438 -22.070312 C -0.476562 -25.558594 -0.347656 -29.066406 -0.136719 -32.597656 C 0.0625 -35.902344 -0.078125 -39.1875 -0.566406 -42.449219 C -0.742188 -43.519531 -0.464844 -44.472656 0.277344 -45.304688 C 0.984375 -46.101562 1.867188 -46.496094 2.929688 -46.496094 L 40.113281 -46.496094 C 40.835938 -46.496094 41.472656 -46.289062 42.03125 -45.871094 C 42.5625 -45.472656 42.933594 -44.945312 43.152344 -44.289062 L 43.289062 -43.886719 L 43.289062 -43.460938 C 43.289062 -43.363281 43.273438 -43.097656 43.25 -42.671875 C 43.222656 -42.246094 43.183594 -41.820312 43.128906 -41.394531 L 40.53125 -41.71875 L 43.148438 -41.71875 C 43.148438 -41.4375 43.125 -40.855469 43.074219 -39.96875 C 43.03125 -39.15625 42.996094 -38.3125 42.972656 -37.429688 C 42.949219 -36.546875 42.941406 -35.882812 42.941406 -35.441406 C 42.941406 -35.035156 42.960938 -34.523438 43.003906 -33.910156 C 43.046875 -33.289062 43.097656 -32.738281 43.160156 -32.253906 L 43.289062 -31.285156 L 43.289062 -31.113281 C 43.289062 -30.144531 42.945312 -29.355469 42.253906 -28.742188 C 41.652344 -28.207031 40.917969 -27.941406 40.042969 -27.941406 L 40.011719 -27.941406 L 38.617188 -27.976562 C 37.730469 -28 36.605469 -28.011719 35.230469 -28.011719 L 30.800781 -28.011719 C 29.273438 -28.011719 27.863281 -27.988281 26.566406 -27.941406 C 25.320312 -27.898438 24.363281 -27.835938 23.695312 -27.75 C 23.265625 -27.695312 22.808594 -27.554688 22.320312 -27.335938 C 22.394531 -27.371094 22.46875 -27.4375 22.539062 -27.539062 C 22.574219 -27.589844 22.601562 -27.636719 22.617188 -27.683594 L 22.621094 -27.6875 C 22.65625 -28.058594 22.550781 -28.359375 22.300781 -28.59375 C 22.457031 -28.445312 22.609375 -28.339844 22.757812 -28.273438 L 21.695312 -25.882812 L 22.210938 -28.449219 C 22.304688 -28.429688 22.898438 -28.398438 23.992188 -28.355469 C 25.191406 -28.3125 26.636719 -28.289062 28.324219 -28.289062 C 30.035156 -28.289062 31.753906 -28.300781 33.488281 -28.324219 C 35.242188 -28.347656 36.730469 -28.359375 37.953125 -28.359375 L 40.042969 -28.359375 C 40.917969 -28.359375 41.652344 -28.09375 42.253906 -27.558594 C 42.945312 -26.945312 43.289062 -26.152344 43.289062 -25.183594 L 43.289062 -16.882812 C 43.289062 -15.914062 42.945312 -15.121094 42.253906 -14.507812 C 41.652344 -13.976562 40.917969 -13.707031 40.042969 -13.707031 C 39.238281 -13.707031 38.121094 -13.71875 36.6875 -13.742188 C 35.257812 -13.765625 33.777344 -13.800781 32.253906 -13.847656 C 30.753906 -13.894531 29.402344 -13.929688 28.203125 -13.953125 C 27.011719 -13.976562 26.214844 -13.988281 25.8125 -13.988281 L 25.8125 -16.605469 L 26.074219 -14 C 25.519531 -13.945312 24.863281 -13.917969 24.101562 -13.917969 C 23.691406 -13.917969 23.308594 -13.863281 22.953125 -13.753906 C 23.0625 -13.789062 23.144531 -13.859375 23.199219 -13.96875 C 23.167969 -13.910156 23.152344 -13.875 23.144531 -13.859375 C 23.148438 -13.863281 23.148438 -13.871094 23.152344 -13.882812 C 23.171875 -13.96875 23.179688 -14.0625 23.167969 -14.175781 C 23.140625 -14.453125 23.046875 -14.667969 22.882812 -14.828125 C 23.152344 -14.566406 23.433594 -14.402344 23.726562 -14.328125 L 23.089844 -11.789062 L 23.605469 -14.355469 C 23.902344 -14.296875 24.683594 -14.265625 25.953125 -14.265625 C 27.359375 -14.265625 28.96875 -14.300781 30.769531 -14.371094 L 36.070312 -14.578125 C 37.753906 -14.648438 39.03125 -14.707031 39.90625 -14.75 L 39.976562 -14.753906 L 40.042969 -14.753906 C 40.917969 -14.753906 41.652344 -14.488281 42.253906 -13.953125 C 42.945312 -13.339844 43.289062 -12.550781 43.289062 -11.582031 Z M 38.054688 -11.582031 C 38.054688 -10.984375 38.296875 -10.472656 38.777344 -10.042969 C 39.167969 -9.695312 39.589844 -9.523438 40.042969 -9.523438 L 40.042969 -12.140625 L 40.183594 -9.527344 C 39.289062 -9.480469 37.984375 -9.421875 36.277344 -9.351562 L 30.96875 -9.140625 C 29.097656 -9.070312 27.425781 -9.035156 25.953125 -9.035156 C 24.335938 -9.035156 23.214844 -9.097656 22.578125 -9.222656 L 22.519531 -9.238281 L 22.457031 -9.25 C 21.261719 -9.550781 20.195312 -10.152344 19.253906 -11.054688 C 18.488281 -11.792969 18.054688 -12.667969 17.957031 -13.679688 C 17.875 -14.5625 18.0625 -15.4375 18.519531 -16.308594 C 19.132812 -17.535156 20.097656 -18.351562 21.414062 -18.753906 C 22.269531 -19.019531 23.167969 -19.148438 24.101562 -19.148438 C 24.691406 -19.148438 25.171875 -19.167969 25.550781 -19.207031 L 25.683594 -19.21875 L 25.8125 -19.21875 C 26.246094 -19.21875 27.078125 -19.207031 28.304688 -19.183594 C 29.523438 -19.160156 30.894531 -19.125 32.414062 -19.078125 C 33.914062 -19.03125 35.367188 -19 36.773438 -18.976562 C 38.175781 -18.953125 39.269531 -18.941406 40.042969 -18.941406 C 39.589844 -18.941406 39.167969 -18.765625 38.777344 -18.417969 C 38.296875 -17.992188 38.054688 -17.480469 38.054688 -16.882812 L 38.054688 -25.183594 C 38.054688 -24.585938 38.296875 -24.074219 38.777344 -23.648438 C 39.167969 -23.300781 39.589844 -23.125 40.042969 -23.125 L 37.953125 -23.125 C 36.753906 -23.125 35.289062 -23.113281 33.554688 -23.09375 C 31.800781 -23.070312 30.054688 -23.058594 28.324219 -23.058594 C 26.570312 -23.058594 25.0625 -23.082031 23.796875 -23.128906 C 22.421875 -23.179688 21.554688 -23.242188 21.183594 -23.316406 L 20.898438 -23.375 L 20.632812 -23.492188 C 19.945312 -23.796875 19.308594 -24.226562 18.722656 -24.777344 C 17.726562 -25.707031 17.292969 -26.871094 17.421875 -28.265625 C 17.519531 -29.125 17.792969 -29.882812 18.253906 -30.539062 C 18.730469 -31.222656 19.371094 -31.742188 20.167969 -32.105469 C 21.121094 -32.535156 22.082031 -32.816406 23.046875 -32.941406 C 23.867188 -33.046875 24.980469 -33.121094 26.382812 -33.171875 C 27.738281 -33.21875 29.210938 -33.242188 30.800781 -33.242188 L 35.230469 -33.242188 C 36.648438 -33.242188 37.820312 -33.230469 38.75 -33.207031 L 40.113281 -33.171875 L 40.042969 -30.554688 L 40.042969 -33.171875 C 39.589844 -33.171875 39.167969 -33 38.777344 -32.652344 C 38.296875 -32.222656 38.054688 -31.710938 38.054688 -31.113281 L 40.671875 -31.113281 L 38.078125 -30.777344 L 37.972656 -31.578125 C 37.898438 -32.164062 37.832031 -32.824219 37.78125 -33.550781 C 37.734375 -34.285156 37.707031 -34.914062 37.707031 -35.441406 C 37.707031 -35.925781 37.71875 -36.636719 37.742188 -37.566406 C 37.765625 -38.496094 37.804688 -39.394531 37.851562 -40.257812 C 37.894531 -41.046875 37.917969 -41.535156 37.917969 -41.71875 L 37.917969 -41.882812 L 37.9375 -42.042969 C 37.976562 -42.363281 38.007812 -42.679688 38.027344 -43 C 38.039062 -43.179688 38.046875 -43.316406 38.050781 -43.417969 C 38.054688 -43.460938 38.054688 -43.492188 38.054688 -43.515625 C 38.058594 -43.523438 38.058594 -43.523438 38.058594 -43.523438 C 38.054688 -43.507812 38.054688 -43.484375 38.054688 -43.460938 L 40.671875 -43.460938 L 38.191406 -42.636719 C 38.316406 -42.257812 38.550781 -41.941406 38.894531 -41.683594 C 39.265625 -41.40625 39.671875 -41.265625 40.113281 -41.265625 L 2.929688 -41.265625 C 3.433594 -41.265625 3.855469 -41.453125 4.1875 -41.828125 C 4.554688 -42.242188 4.695312 -42.707031 4.609375 -43.21875 C 5.148438 -39.597656 5.308594 -35.953125 5.089844 -32.285156 C 4.882812 -28.835938 4.753906 -25.414062 4.710938 -22.019531 L 4.605469 -11.457031 C 4.582031 -7.917969 4.5 -4.390625 4.359375 -0.871094 L 4.355469 -0.832031 L 4.355469 -0.789062 C 4.363281 -0.914062 4.347656 -1.054688 4.304688 -1.210938 C 4.226562 -1.515625 4.074219 -1.785156 3.851562 -2.023438 C 3.628906 -2.265625 3.371094 -2.4375 3.074219 -2.535156 C 2.917969 -2.589844 2.777344 -2.617188 2.652344 -2.617188 L 40.394531 -2.617188 C 39.855469 -2.617188 39.378906 -2.40625 38.960938 -1.988281 C 38.542969 -1.570312 38.335938 -1.09375 38.335938 -0.558594 L 40.953125 -0.558594 L 38.335938 -0.457031 L 38.300781 -1.363281 C 38.28125 -1.957031 38.246094 -2.675781 38.199219 -3.519531 C 38.152344 -4.402344 38.117188 -5.222656 38.09375 -5.988281 C 38.066406 -6.757812 38.054688 -7.34375 38.054688 -7.742188 Z M 38.054688 -11.582031 "/></g></g></g><g fill="#ffffff" fill-opacity="1"><g transform="translate(1.125661, 56.471526)"><g><path d="M 40.671875 -11.578125 C 40.671875 -10.972656 40.671875 -10.3125 40.671875 -9.59375 C 40.671875 -8.875 40.671875 -8.257812 40.671875 -7.75 C 40.671875 -7.375 40.679688 -6.8125 40.703125 -6.0625 C 40.734375 -5.320312 40.769531 -4.519531 40.8125 -3.65625 C 40.851562 -2.800781 40.882812 -2.070312 40.90625 -1.46875 C 40.9375 -0.863281 40.953125 -0.5625 40.953125 -0.5625 C 40.953125 -0.1875 40.765625 0 40.390625 0 L 2.65625 0 C 2 0 1.695312 -0.328125 1.75 -0.984375 C 1.882812 -4.460938 1.960938 -7.957031 1.984375 -11.46875 C 2.003906 -14.988281 2.039062 -18.515625 2.09375 -22.046875 C 2.132812 -25.484375 2.257812 -28.945312 2.46875 -32.4375 C 2.6875 -35.925781 2.535156 -39.394531 2.015625 -42.84375 C 1.972656 -43.113281 2.046875 -43.351562 2.234375 -43.5625 C 2.421875 -43.769531 2.65625 -43.875 2.9375 -43.875 L 40.109375 -43.875 C 40.390625 -43.875 40.578125 -43.738281 40.671875 -43.46875 C 40.671875 -43.414062 40.660156 -43.203125 40.640625 -42.828125 C 40.617188 -42.460938 40.582031 -42.09375 40.53125 -41.71875 C 40.53125 -41.488281 40.503906 -40.953125 40.453125 -40.109375 C 40.410156 -39.273438 40.378906 -38.40625 40.359375 -37.5 C 40.335938 -36.59375 40.328125 -35.90625 40.328125 -35.4375 C 40.328125 -34.976562 40.347656 -34.410156 40.390625 -33.734375 C 40.441406 -33.054688 40.5 -32.445312 40.5625 -31.90625 C 40.632812 -31.375 40.671875 -31.109375 40.671875 -31.109375 C 40.671875 -30.742188 40.460938 -30.5625 40.046875 -30.5625 C 40.046875 -30.5625 39.59375 -30.570312 38.6875 -30.59375 C 37.78125 -30.613281 36.628906 -30.625 35.234375 -30.625 C 33.835938 -30.625 32.359375 -30.625 30.796875 -30.625 C 29.242188 -30.625 27.800781 -30.597656 26.46875 -30.546875 C 25.144531 -30.503906 24.113281 -30.4375 23.375 -30.34375 C 22.675781 -30.25 21.960938 -30.039062 21.234375 -29.71875 C 20.515625 -29.394531 20.109375 -28.8125 20.015625 -27.96875 C 19.972656 -27.457031 20.132812 -27.023438 20.5 -26.671875 C 20.875 -26.328125 21.273438 -26.066406 21.703125 -25.890625 C 21.929688 -25.835938 22.660156 -25.785156 23.890625 -25.734375 C 25.128906 -25.691406 26.609375 -25.671875 28.328125 -25.671875 C 30.046875 -25.671875 31.773438 -25.679688 33.515625 -25.703125 C 35.265625 -25.734375 36.742188 -25.75 37.953125 -25.75 C 39.160156 -25.75 39.859375 -25.75 40.046875 -25.75 C 40.460938 -25.75 40.671875 -25.5625 40.671875 -25.1875 L 40.671875 -19.390625 C 40.671875 -18.878906 40.671875 -18.4375 40.671875 -18.0625 C 40.671875 -17.695312 40.671875 -17.304688 40.671875 -16.890625 C 40.671875 -16.515625 40.460938 -16.328125 40.046875 -16.328125 C 39.253906 -16.328125 38.148438 -16.335938 36.734375 -16.359375 C 35.316406 -16.378906 33.847656 -16.410156 32.328125 -16.453125 C 30.816406 -16.503906 29.457031 -16.539062 28.25 -16.5625 C 27.039062 -16.59375 26.226562 -16.609375 25.8125 -16.609375 C 25.34375 -16.554688 24.769531 -16.53125 24.09375 -16.53125 C 23.425781 -16.53125 22.789062 -16.4375 22.1875 -16.25 C 21.582031 -16.0625 21.140625 -15.691406 20.859375 -15.140625 C 20.390625 -14.253906 20.457031 -13.519531 21.0625 -12.9375 C 21.664062 -12.351562 22.34375 -11.972656 23.09375 -11.796875 C 23.5625 -11.703125 24.515625 -11.65625 25.953125 -11.65625 C 27.390625 -11.65625 29.023438 -11.6875 30.859375 -11.75 C 32.703125 -11.820312 34.472656 -11.890625 36.171875 -11.953125 C 37.867188 -12.023438 39.160156 -12.085938 40.046875 -12.140625 C 40.460938 -12.140625 40.671875 -11.953125 40.671875 -11.578125 Z M 40.671875 -11.578125 "/></g></g></g></g></g><g clip-path="url(#1e959d9f19)"><g clip-path="url(#87755352e1)"><g clip-path="url(#4e7d25f9e9)"><path fill="#000000" d="M 183.332031 167.289062 L 177.003906 190.785156 L 184.445312 190.535156 L 181.339844 212.835938 L 196.769531 183.433594 L 189.742188 183.601562 L 198.945312 167.089844 Z M 183.332031 167.289062 " fill-opacity="1" fill-rule="nonzero"/></g></g></g><g transform="matrix(1, 0, 0, 1, 131, 158)"><g clip-path="url(#44452c86d4)"><g clip-path="url(#a5ba3ad946)"><g fill="#1d0061" fill-opacity="1"><g transform="translate(2.14606, 56.484704)"><g><path d="M 42.3125 -45.730469 C 42.558594 -45.484375 42.769531 -45.1875 42.941406 -44.84375 L 43.15625 -44.410156 L 43.207031 -43.933594 C 43.3125 -42.882812 43.347656 -41.984375 43.320312 -41.238281 C 43.296875 -40.589844 43.261719 -39.871094 43.214844 -39.082031 C 43.171875 -38.367188 43.148438 -37.269531 43.148438 -35.789062 C 43.148438 -35.304688 43.191406 -34.566406 43.277344 -33.574219 L 43.496094 -31.015625 L 43.496094 -30.90625 C 43.496094 -29.972656 43.191406 -29.199219 42.574219 -28.585938 C 41.960938 -27.96875 41.183594 -27.660156 40.253906 -27.660156 L 40.214844 -27.660156 L 40.175781 -27.664062 C 38.570312 -27.710938 36.734375 -27.792969 34.664062 -27.910156 L 28.914062 -28.222656 C 27.171875 -28.3125 25.929688 -28.359375 25.183594 -28.359375 L 25.183594 -30.976562 L 25.253906 -28.359375 C 23.667969 -28.316406 22.300781 -28.191406 21.152344 -27.984375 C 21.007812 -27.957031 20.894531 -27.925781 20.816406 -27.894531 C 20.835938 -27.902344 20.871094 -27.929688 20.925781 -27.972656 C 21.230469 -28.230469 21.382812 -28.554688 21.382812 -28.953125 C 21.382812 -28.878906 21.386719 -28.828125 21.390625 -28.796875 C 21.382812 -28.84375 21.363281 -28.902344 21.328125 -28.972656 C 21.15625 -29.359375 20.855469 -29.628906 20.429688 -29.792969 C 20.722656 -29.679688 20.949219 -29.613281 21.113281 -29.59375 L 21.191406 -29.585938 L 21.265625 -29.570312 C 22.292969 -29.382812 23.105469 -29.3125 23.710938 -29.363281 C 24.675781 -29.441406 25.964844 -29.433594 27.582031 -29.332031 C 29.246094 -29.230469 30.890625 -29 32.511719 -28.648438 C 34.417969 -28.230469 36.121094 -27.394531 37.609375 -26.140625 C 38.363281 -25.496094 39.164062 -24.699219 40.007812 -23.75 C 41.019531 -22.621094 41.847656 -21.066406 42.496094 -19.09375 C 43.117188 -17.203125 43.429688 -14.628906 43.429688 -11.371094 C 43.429688 -10.511719 43.253906 -9.355469 42.902344 -7.898438 C 42.527344 -6.347656 41.816406 -4.773438 40.769531 -3.171875 L 40.75 -3.144531 L 40.730469 -3.113281 C 40.160156 -2.289062 39.300781 -1.433594 38.160156 -0.546875 C 36.984375 0.363281 35.671875 1.050781 34.214844 1.515625 C 32.433594 2.054688 30.65625 2.351562 28.890625 2.40625 C 27.332031 2.453125 26.1875 2.476562 25.464844 2.476562 C 25.292969 2.476562 24.625 2.488281 23.457031 2.511719 C 22.253906 2.535156 20.773438 2.546875 19.011719 2.546875 C 17.277344 2.546875 15.460938 2.558594 13.566406 2.582031 C 11.648438 2.605469 9.835938 2.617188 8.128906 2.617188 L 2.441406 2.617188 C 1.570312 2.617188 0.832031 2.347656 0.234375 1.816406 C -0.457031 1.203125 -0.800781 0.410156 -0.800781 -0.558594 C -0.800781 -1.152344 -0.789062 -1.746094 -0.765625 -2.339844 C -0.742188 -2.9375 -0.703125 -3.53125 -0.652344 -4.125 C -0.566406 -5.417969 -0.535156 -6.738281 -0.558594 -8.085938 C -0.582031 -9.515625 -0.59375 -10.9375 -0.59375 -12.347656 C -0.59375 -13.339844 -0.25 -14.144531 0.441406 -14.757812 C 1.125 -15.367188 1.960938 -15.617188 2.941406 -15.507812 C 3.339844 -15.472656 3.859375 -15.453125 4.5 -15.453125 C 5.253906 -15.453125 5.949219 -15.441406 6.589844 -15.414062 C 7.160156 -15.394531 7.523438 -15.382812 7.675781 -15.382812 L 7.761719 -15.382812 L 7.847656 -15.378906 C 8.503906 -15.332031 9.417969 -15.300781 10.585938 -15.277344 C 11.746094 -15.253906 12.980469 -15.265625 14.28125 -15.3125 C 15.589844 -15.355469 16.820312 -15.425781 17.96875 -15.515625 C 18.980469 -15.59375 19.726562 -15.703125 20.210938 -15.839844 L 20.265625 -15.855469 L 20.324219 -15.871094 C 20.335938 -15.875 20.34375 -15.875 20.347656 -15.875 C 20.332031 -15.871094 20.3125 -15.863281 20.292969 -15.847656 C 20.203125 -15.800781 20.121094 -15.730469 20.046875 -15.644531 C 19.921875 -15.492188 19.855469 -15.367188 19.851562 -15.261719 L 19.851562 -15.308594 L 19.855469 -15.355469 C 19.828125 -15.007812 19.925781 -14.671875 20.152344 -14.347656 C 20.335938 -14.085938 20.542969 -13.910156 20.777344 -13.828125 C 20.480469 -13.933594 20.066406 -13.988281 19.535156 -13.988281 C 18.769531 -13.988281 18.003906 -13.957031 17.238281 -13.890625 C 16.332031 -13.816406 15.605469 -13.777344 15.070312 -13.777344 L 15.070312 -16.394531 L 15.230469 -13.785156 C 13.5625 -13.679688 11.925781 -13.746094 10.328125 -13.980469 C 8.519531 -14.246094 6.828125 -14.90625 5.246094 -15.960938 C 4.078125 -16.722656 3.039062 -17.699219 2.132812 -18.898438 C 1.253906 -20.058594 0.585938 -21.277344 0.121094 -22.546875 C -0.800781 -24.996094 -1.140625 -27.558594 -0.894531 -30.238281 C -0.660156 -32.808594 -0.015625 -35.253906 1.035156 -37.570312 C 1.699219 -39.007812 2.53125 -40.308594 3.523438 -41.46875 C 4.601562 -42.722656 5.886719 -43.710938 7.378906 -44.425781 C 8.441406 -44.933594 9.539062 -45.386719 10.667969 -45.789062 C 12 -46.261719 13.347656 -46.496094 14.71875 -46.496094 L 41.546875 -46.496094 Z M 38.613281 -42.03125 L 40.464844 -43.882812 L 40.464844 -41.265625 L 14.71875 -41.265625 C 13.953125 -41.265625 13.183594 -41.128906 12.421875 -40.859375 C 11.460938 -40.515625 10.535156 -40.132812 9.644531 -39.707031 C 8.8125 -39.308594 8.097656 -38.761719 7.496094 -38.0625 C 6.820312 -37.269531 6.253906 -36.382812 5.800781 -35.402344 C 4.992188 -33.625 4.496094 -31.746094 4.316406 -29.757812 C 4.140625 -27.878906 4.382812 -26.070312 5.039062 -24.335938 C 5.324219 -23.558594 5.746094 -22.796875 6.308594 -22.054688 C 6.84375 -21.34375 7.457031 -20.765625 8.148438 -20.316406 C 9.078125 -19.695312 10.058594 -19.308594 11.089844 -19.15625 C 12.328125 -18.972656 13.601562 -18.925781 14.90625 -19.003906 L 14.988281 -19.011719 L 15.070312 -19.011719 C 15.460938 -19.011719 16.039062 -19.042969 16.804688 -19.105469 C 17.714844 -19.183594 18.625 -19.21875 19.535156 -19.21875 C 20.675781 -19.21875 21.679688 -19.0625 22.546875 -18.75 C 23.359375 -18.457031 23.992188 -17.988281 24.445312 -17.339844 C 24.9375 -16.632812 25.148438 -15.828125 25.070312 -14.921875 L 22.464844 -15.140625 L 25.078125 -15.015625 C 25.027344 -13.933594 24.679688 -13.015625 24.042969 -12.261719 C 23.417969 -11.523438 22.582031 -11.027344 21.535156 -10.78125 L 20.929688 -13.324219 L 21.648438 -10.808594 C 20.828125 -10.574219 19.738281 -10.40625 18.378906 -10.296875 C 17.152344 -10.203125 15.847656 -10.128906 14.460938 -10.082031 C 13.066406 -10.035156 11.738281 -10.023438 10.484375 -10.046875 C 9.234375 -10.070312 8.238281 -10.105469 7.5 -10.15625 L 7.675781 -12.765625 L 7.675781 -10.152344 C 7.453125 -10.152344 7.027344 -10.164062 6.386719 -10.1875 C 5.816406 -10.210938 5.1875 -10.21875 4.5 -10.21875 C 3.699219 -10.21875 2.988281 -10.25 2.363281 -10.304688 C 2.925781 -10.242188 3.441406 -10.421875 3.917969 -10.847656 C 4.398438 -11.273438 4.640625 -11.773438 4.640625 -12.347656 C 4.640625 -10.96875 4.652344 -9.574219 4.675781 -8.171875 C 4.699219 -6.679688 4.660156 -5.1875 4.5625 -3.691406 C 4.515625 -3.167969 4.484375 -2.644531 4.460938 -2.125 C 4.441406 -1.601562 4.429688 -1.078125 4.429688 -0.558594 C 4.429688 -1.15625 4.191406 -1.667969 3.710938 -2.09375 C 3.316406 -2.441406 2.894531 -2.617188 2.441406 -2.617188 L 8.128906 -2.617188 C 9.8125 -2.617188 11.605469 -2.628906 13.503906 -2.652344 C 15.417969 -2.675781 17.257812 -2.6875 19.011719 -2.6875 C 20.738281 -2.6875 22.1875 -2.699219 23.355469 -2.71875 C 24.558594 -2.742188 25.261719 -2.753906 25.464844 -2.753906 C 26.136719 -2.753906 27.226562 -2.777344 28.734375 -2.824219 C 30.035156 -2.863281 31.332031 -3.078125 32.621094 -3.46875 C 33.488281 -3.746094 34.265625 -4.152344 34.953125 -4.683594 C 35.671875 -5.242188 36.164062 -5.710938 36.429688 -6.09375 L 38.578125 -4.605469 L 36.390625 -6.039062 C 37.109375 -7.132812 37.582031 -8.164062 37.816406 -9.125 C 38.070312 -10.179688 38.195312 -10.925781 38.195312 -11.371094 C 38.195312 -14.070312 37.972656 -16.097656 37.523438 -17.460938 C 37.101562 -18.742188 36.628906 -19.679688 36.105469 -20.269531 C 35.414062 -21.042969 34.792969 -21.664062 34.246094 -22.136719 C 33.410156 -22.835938 32.460938 -23.300781 31.394531 -23.535156 C 30.035156 -23.832031 28.65625 -24.023438 27.253906 -24.109375 C 25.890625 -24.195312 24.855469 -24.207031 24.144531 -24.148438 C 23.078125 -24.058594 21.796875 -24.152344 20.3125 -24.425781 L 20.789062 -27 L 20.464844 -24.402344 C 19.882812 -24.476562 19.253906 -24.640625 18.566406 -24.902344 C 17.65625 -25.25 16.988281 -25.882812 16.570312 -26.800781 C 16.289062 -27.414062 16.148438 -28.128906 16.148438 -28.953125 C 16.148438 -30.1875 16.621094 -31.199219 17.566406 -31.988281 C 18.242188 -32.550781 19.125 -32.933594 20.21875 -33.128906 C 21.628906 -33.386719 23.257812 -33.539062 25.113281 -33.589844 L 25.183594 -33.589844 C 26.019531 -33.589844 27.359375 -33.542969 29.199219 -33.449219 L 34.960938 -33.132812 C 36.984375 -33.019531 38.773438 -32.9375 40.332031 -32.894531 L 40.253906 -30.277344 L 40.253906 -32.894531 C 39.742188 -32.894531 39.28125 -32.691406 38.875 -32.285156 C 38.46875 -31.878906 38.265625 -31.417969 38.265625 -30.90625 L 40.882812 -30.90625 L 38.273438 -30.683594 L 38.066406 -33.121094 C 37.964844 -34.265625 37.917969 -35.15625 37.917969 -35.789062 C 37.917969 -37.375 37.941406 -38.582031 37.992188 -39.398438 C 38.035156 -40.148438 38.070312 -40.824219 38.09375 -41.433594 C 38.113281 -41.941406 38.082031 -42.601562 38 -43.410156 L 40.601562 -43.671875 L 38.261719 -42.503906 C 38.34375 -42.34375 38.460938 -42.183594 38.613281 -42.03125 Z M 38.613281 -42.03125 "/></g></g></g></g><g fill="#ffffff" fill-opacity="1"><g transform="translate(2.14606, 56.484704)"><g><path d="M 40.46875 -43.875 C 40.507812 -43.832031 40.554688 -43.765625 40.609375 -43.671875 C 40.703125 -42.742188 40.734375 -41.960938 40.703125 -41.328125 C 40.679688 -40.703125 40.644531 -40.003906 40.59375 -39.234375 C 40.550781 -38.472656 40.53125 -37.328125 40.53125 -35.796875 C 40.53125 -35.234375 40.578125 -34.414062 40.671875 -33.34375 C 40.765625 -32.28125 40.832031 -31.46875 40.875 -30.90625 C 40.875 -30.488281 40.664062 -30.28125 40.25 -30.28125 C 38.664062 -30.320312 36.851562 -30.398438 34.8125 -30.515625 C 32.769531 -30.640625 30.851562 -30.742188 29.0625 -30.828125 C 27.269531 -30.921875 25.976562 -30.96875 25.1875 -30.96875 C 23.46875 -30.925781 21.96875 -30.785156 20.6875 -30.546875 C 19.40625 -30.316406 18.765625 -29.785156 18.765625 -28.953125 C 18.765625 -28.066406 19.007812 -27.53125 19.5 -27.34375 C 19.988281 -27.15625 20.421875 -27.039062 20.796875 -27 C 22.046875 -26.769531 23.085938 -26.6875 23.921875 -26.75 C 24.765625 -26.820312 25.929688 -26.8125 27.421875 -26.71875 C 28.953125 -26.625 30.460938 -26.414062 31.953125 -26.09375 C 33.441406 -25.769531 34.765625 -25.117188 35.921875 -24.140625 C 36.578125 -23.578125 37.285156 -22.863281 38.046875 -22 C 38.816406 -21.144531 39.46875 -19.90625 40 -18.28125 C 40.539062 -16.65625 40.8125 -14.351562 40.8125 -11.375 C 40.8125 -10.71875 40.660156 -9.757812 40.359375 -8.5 C 40.054688 -7.25 39.460938 -5.953125 38.578125 -4.609375 C 38.160156 -4.003906 37.484375 -3.335938 36.546875 -2.609375 C 35.617188 -1.890625 34.578125 -1.347656 33.421875 -0.984375 C 31.878906 -0.515625 30.34375 -0.253906 28.8125 -0.203125 C 27.28125 -0.160156 26.164062 -0.140625 25.46875 -0.140625 C 25.28125 -0.140625 24.59375 -0.125 23.40625 -0.09375 C 22.21875 -0.0703125 20.75 -0.0625 19 -0.0625 C 17.257812 -0.0625 15.4375 -0.0507812 13.53125 -0.03125 C 11.625 -0.0078125 9.820312 0 8.125 0 C 6.425781 0 5.050781 0 4 0 C 2.957031 0 2.4375 0 2.4375 0 C 2.019531 0 1.8125 -0.1875 1.8125 -0.5625 C 1.8125 -1.113281 1.820312 -1.664062 1.84375 -2.21875 C 1.875 -2.78125 1.910156 -3.34375 1.953125 -3.90625 C 2.046875 -5.300781 2.078125 -6.707031 2.046875 -8.125 C 2.023438 -9.539062 2.015625 -10.945312 2.015625 -12.34375 C 2.015625 -12.757812 2.226562 -12.945312 2.65625 -12.90625 C 3.164062 -12.863281 3.78125 -12.84375 4.5 -12.84375 C 5.21875 -12.84375 5.878906 -12.828125 6.484375 -12.796875 C 7.085938 -12.773438 7.484375 -12.765625 7.671875 -12.765625 C 8.367188 -12.722656 9.320312 -12.6875 10.53125 -12.65625 C 11.738281 -12.632812 13.015625 -12.644531 14.359375 -12.6875 C 15.710938 -12.738281 16.984375 -12.8125 18.171875 -12.90625 C 19.359375 -13 20.273438 -13.140625 20.921875 -13.328125 C 21.898438 -13.554688 22.414062 -14.160156 22.46875 -15.140625 C 22.507812 -15.691406 22.238281 -16.070312 21.65625 -16.28125 C 21.082031 -16.5 20.375 -16.609375 19.53125 -16.609375 C 18.695312 -16.609375 17.859375 -16.570312 17.015625 -16.5 C 16.179688 -16.425781 15.53125 -16.390625 15.0625 -16.390625 C 13.582031 -16.296875 12.128906 -16.351562 10.703125 -16.5625 C 9.285156 -16.78125 7.953125 -17.304688 6.703125 -18.140625 C 5.765625 -18.742188 4.9375 -19.519531 4.21875 -20.46875 C 3.5 -21.425781 2.953125 -22.414062 2.578125 -23.4375 C 1.785156 -25.53125 1.492188 -27.71875 1.703125 -30 C 1.910156 -32.28125 2.484375 -34.441406 3.421875 -36.484375 C 3.972656 -37.691406 4.664062 -38.785156 5.5 -39.765625 C 6.34375 -40.742188 7.347656 -41.507812 8.515625 -42.0625 C 9.484375 -42.53125 10.488281 -42.945312 11.53125 -43.3125 C 12.582031 -43.6875 13.644531 -43.875 14.71875 -43.875 Z M 40.46875 -43.875 "/></g></g></g></g></g><g transform="matrix(1, 0, 0, 1, 91, 158)"><g clip-path="url(#826efe5a5d)"><g clip-path="url(#098554e8f8)"><g fill="#1d0061" fill-opacity="1"><g transform="translate(1.488988, 56.484704)"><g><path d="M 43.847656 -19.953125 C 43.847656 -18.824219 43.835938 -17.449219 43.8125 -15.832031 C 43.789062 -14.242188 43.777344 -12.578125 43.777344 -10.847656 C 43.777344 -9.089844 43.765625 -7.4375 43.742188 -5.890625 C 43.71875 -4.367188 43.707031 -3.089844 43.707031 -2.058594 C 43.707031 -1.566406 43.710938 -1.183594 43.722656 -0.910156 C 43.726562 -0.796875 43.730469 -0.714844 43.738281 -0.65625 C 43.734375 -0.695312 43.71875 -0.757812 43.699219 -0.84375 L 43.777344 -0.53125 L 43.777344 -0.210938 C 43.777344 0.386719 43.617188 0.925781 43.300781 1.398438 C 43.035156 1.800781 42.683594 2.109375 42.253906 2.328125 C 41.867188 2.519531 41.457031 2.617188 41.019531 2.617188 L 23.023438 2.617188 C 22.253906 2.617188 21.601562 2.347656 21.066406 1.816406 C 20.535156 1.28125 20.265625 0.628906 20.265625 -0.140625 L 22.882812 -0.140625 L 20.402344 0.6875 C 20.203125 0.0976562 20.019531 -0.492188 19.847656 -1.082031 C 19.695312 -1.609375 19.53125 -2.132812 19.355469 -2.660156 L 21.835938 -3.488281 L 19.375 -2.601562 C 18.902344 -3.914062 18.523438 -5.429688 18.242188 -7.144531 C 18.035156 -8.40625 17.75 -9.375 17.382812 -10.039062 L 17.332031 -10.128906 L 17.292969 -10.21875 C 17.34375 -10.105469 17.421875 -9.992188 17.527344 -9.875 C 17.738281 -9.632812 18.003906 -9.453125 18.316406 -9.335938 C 18.671875 -9.199219 19.03125 -9.164062 19.398438 -9.222656 C 19.613281 -9.257812 19.808594 -9.324219 19.972656 -9.421875 C 20.195312 -9.550781 20.367188 -9.734375 20.492188 -9.976562 C 20.574219 -10.136719 20.617188 -10.277344 20.617188 -10.394531 L 20.617188 -10.3125 L 20.609375 -10.230469 C 20.523438 -8.828125 20.511719 -7.21875 20.578125 -5.398438 L 20.753906 -0.253906 L 20.753906 -0.210938 C 20.753906 0.386719 20.597656 0.925781 20.28125 1.398438 C 20.011719 1.800781 19.660156 2.109375 19.230469 2.328125 C 18.84375 2.519531 18.433594 2.617188 18 2.617188 L 1.941406 2.546875 C 1.179688 2.546875 0.53125 2.28125 0 1.746094 C -0.535156 1.210938 -0.800781 0.558594 -0.800781 -0.210938 C -0.800781 -4.089844 -0.753906 -7.949219 -0.664062 -11.785156 C -0.570312 -15.578125 -0.523438 -19.390625 -0.523438 -23.230469 C -0.523438 -24.523438 -0.535156 -26.046875 -0.558594 -27.800781 C -0.582031 -29.582031 -0.59375 -31.394531 -0.59375 -33.242188 C -0.59375 -35.066406 -0.605469 -36.773438 -0.628906 -38.367188 L -0.699219 -42.230469 L -0.734375 -43.710938 L -0.734375 -43.742188 C -0.734375 -44.511719 -0.464844 -45.164062 0.0703125 -45.695312 C 0.601562 -46.230469 1.253906 -46.496094 2.023438 -46.496094 L 19.535156 -46.496094 C 20.28125 -46.496094 20.917969 -46.230469 21.453125 -45.695312 C 21.675781 -45.472656 21.863281 -45.210938 22.011719 -44.910156 L 22.113281 -44.714844 L 22.175781 -44.503906 C 22.53125 -43.339844 22.855469 -41.953125 23.152344 -40.34375 C 23.425781 -38.859375 23.726562 -37.371094 24.042969 -35.886719 C 24.339844 -34.523438 24.664062 -33.40625 25.023438 -32.523438 L 25.070312 -32.414062 L 25.105469 -32.300781 C 25.070312 -32.417969 25.003906 -32.539062 24.914062 -32.667969 C 24.730469 -32.925781 24.492188 -33.128906 24.191406 -33.28125 C 23.875 -33.4375 23.546875 -33.507812 23.207031 -33.492188 C 23.019531 -33.484375 22.855469 -33.449219 22.714844 -33.390625 L 22.800781 -33.425781 L 22.890625 -33.457031 C 22.457031 -33.3125 22.132812 -33.046875 21.921875 -32.664062 C 21.867188 -32.566406 21.832031 -32.476562 21.808594 -32.394531 L 21.808594 -32.441406 L 21.8125 -32.480469 C 21.898438 -33.386719 21.953125 -34.503906 21.976562 -35.832031 C 22 -37.214844 22.011719 -38.617188 22.011719 -40.042969 L 22.011719 -43.671875 C 22.011719 -44.269531 22.167969 -44.804688 22.484375 -45.28125 C 22.753906 -45.683594 23.101562 -45.992188 23.535156 -46.207031 C 23.921875 -46.402344 24.332031 -46.496094 24.765625 -46.496094 L 41.160156 -46.496094 C 41.59375 -46.496094 42.007812 -46.402344 42.390625 -46.207031 C 42.824219 -45.992188 43.171875 -45.683594 43.441406 -45.28125 C 43.757812 -44.804688 43.917969 -44.269531 43.917969 -43.671875 L 43.917969 -43.53125 L 43.882812 -31.699219 L 43.847656 -19.945312 Z M 38.613281 -19.960938 L 38.648438 -31.714844 L 38.683594 -43.53125 L 38.683594 -43.671875 C 38.683594 -43.214844 38.820312 -42.78125 39.089844 -42.378906 C 39.332031 -42.011719 39.65625 -41.726562 40.050781 -41.527344 C 40.402344 -41.351562 40.773438 -41.265625 41.160156 -41.265625 L 24.765625 -41.265625 C 25.15625 -41.265625 25.523438 -41.351562 25.875 -41.527344 C 26.273438 -41.726562 26.59375 -42.011719 26.839844 -42.378906 C 27.109375 -42.78125 27.242188 -43.214844 27.242188 -43.671875 L 27.242188 -40.042969 C 27.242188 -38.589844 27.230469 -37.15625 27.207031 -35.746094 C 27.183594 -34.28125 27.121094 -33.027344 27.023438 -31.984375 L 24.417969 -32.230469 L 27.027344 -32.058594 C 26.980469 -31.316406 26.800781 -30.671875 26.496094 -30.125 C 26.050781 -29.320312 25.398438 -28.777344 24.546875 -28.492188 L 23.71875 -30.976562 L 24.726562 -28.558594 C 23.710938 -28.136719 22.753906 -28.148438 21.851562 -28.601562 C 21 -29.027344 20.414062 -29.75 20.101562 -30.765625 L 22.601562 -31.53125 L 20.183594 -30.542969 C 19.703125 -31.707031 19.289062 -33.121094 18.929688 -34.785156 C 18.597656 -36.320312 18.292969 -37.859375 18.007812 -39.394531 C 17.746094 -40.808594 17.46875 -42.003906 17.171875 -42.980469 L 19.671875 -43.742188 L 17.332031 -42.570312 C 17.4375 -42.363281 17.578125 -42.171875 17.753906 -41.996094 C 18.242188 -41.507812 18.835938 -41.265625 19.535156 -41.265625 L 2.023438 -41.265625 C 2.699219 -41.265625 3.28125 -41.507812 3.769531 -41.996094 C 4.257812 -42.484375 4.5 -43.066406 4.5 -43.742188 L 1.882812 -43.742188 L 4.5 -43.804688 L 4.535156 -42.324219 L 4.605469 -38.441406 C 4.628906 -36.824219 4.640625 -35.09375 4.640625 -33.242188 C 4.640625 -31.417969 4.652344 -29.625 4.675781 -27.871094 C 4.699219 -26.089844 4.710938 -24.546875 4.710938 -23.230469 C 4.710938 -19.351562 4.664062 -15.492188 4.570312 -11.65625 C 4.476562 -7.863281 4.429688 -4.046875 4.429688 -0.210938 C 4.429688 -0.886719 4.1875 -1.46875 3.699219 -1.953125 C 3.210938 -2.441406 2.632812 -2.6875 1.964844 -2.6875 L 18 -2.617188 C 17.609375 -2.617188 17.242188 -2.527344 16.890625 -2.351562 C 16.492188 -2.15625 16.171875 -1.871094 15.925781 -1.503906 C 15.65625 -1.097656 15.523438 -0.667969 15.523438 -0.210938 L 18.136719 -0.210938 L 15.523438 -0.121094 L 15.351562 -5.207031 C 15.277344 -7.199219 15.289062 -8.984375 15.386719 -10.558594 L 18 -10.394531 L 15.382812 -10.394531 C 15.382812 -11.117188 15.535156 -11.777344 15.835938 -12.367188 C 16.183594 -13.035156 16.6875 -13.566406 17.351562 -13.949219 C 18.289062 -14.492188 19.230469 -14.585938 20.175781 -14.226562 C 21.015625 -13.910156 21.640625 -13.292969 22.054688 -12.382812 L 19.671875 -11.300781 L 21.964844 -12.5625 C 22.621094 -11.371094 23.101562 -9.847656 23.40625 -7.992188 C 23.636719 -6.59375 23.933594 -5.386719 24.296875 -4.375 L 24.308594 -4.34375 L 24.316406 -4.316406 C 24.515625 -3.726562 24.699219 -3.136719 24.871094 -2.546875 C 25.023438 -2.019531 25.1875 -1.492188 25.363281 -0.96875 L 25.5 -0.5625 L 25.5 -0.140625 C 25.5 -0.816406 25.253906 -1.398438 24.765625 -1.886719 C 24.28125 -2.371094 23.699219 -2.617188 23.023438 -2.617188 L 41.019531 -2.617188 C 40.632812 -2.617188 40.261719 -2.527344 39.910156 -2.351562 C 39.515625 -2.15625 39.195312 -1.871094 38.949219 -1.503906 C 38.679688 -1.097656 38.542969 -0.667969 38.542969 -0.210938 L 41.160156 -0.210938 L 38.621094 0.425781 C 38.523438 0.03125 38.472656 -0.796875 38.472656 -2.058594 C 38.472656 -3.117188 38.484375 -4.421875 38.507812 -5.96875 C 38.53125 -7.492188 38.542969 -9.117188 38.542969 -10.847656 C 38.542969 -12.605469 38.554688 -14.292969 38.578125 -15.910156 C 38.601562 -17.5 38.613281 -18.847656 38.613281 -19.953125 Z M 38.613281 -19.960938 "/></g></g></g></g><g fill="#ffffff" fill-opacity="1"><g transform="translate(1.488988, 56.484704)"><g><path d="M 41.234375 -19.953125 C 41.234375 -18.835938 41.21875 -17.476562 41.1875 -15.875 C 41.164062 -14.269531 41.15625 -12.59375 41.15625 -10.84375 C 41.15625 -9.101562 41.144531 -7.460938 41.125 -5.921875 C 41.101562 -4.390625 41.09375 -3.097656 41.09375 -2.046875 C 41.09375 -1.003906 41.113281 -0.390625 41.15625 -0.203125 C 41.15625 -0.0664062 41.109375 0 41.015625 0 L 23.015625 0 C 22.929688 0 22.890625 -0.046875 22.890625 -0.140625 C 22.703125 -0.703125 22.523438 -1.257812 22.359375 -1.8125 C 22.191406 -2.375 22.019531 -2.929688 21.84375 -3.484375 C 21.414062 -4.648438 21.070312 -6.007812 20.8125 -7.5625 C 20.5625 -9.125 20.179688 -10.367188 19.671875 -11.296875 C 19.441406 -11.804688 19.101562 -11.929688 18.65625 -11.671875 C 18.21875 -11.421875 18 -10.992188 18 -10.390625 C 17.90625 -8.898438 17.890625 -7.203125 17.953125 -5.296875 C 18.023438 -3.390625 18.085938 -1.691406 18.140625 -0.203125 C 18.140625 -0.0664062 18.09375 0 18 0 L 1.953125 -0.0625 C 1.859375 -0.0625 1.8125 -0.109375 1.8125 -0.203125 C 1.8125 -4.066406 1.859375 -7.90625 1.953125 -11.71875 C 2.046875 -15.53125 2.09375 -19.367188 2.09375 -23.234375 C 2.09375 -24.535156 2.078125 -26.066406 2.046875 -27.828125 C 2.023438 -29.597656 2.015625 -31.398438 2.015625 -33.234375 C 2.015625 -35.078125 2.003906 -36.800781 1.984375 -38.40625 C 1.960938 -40.007812 1.941406 -41.300781 1.921875 -42.28125 C 1.898438 -43.257812 1.890625 -43.75 1.890625 -43.75 C 1.890625 -43.832031 1.929688 -43.875 2.015625 -43.875 L 19.53125 -43.875 C 19.582031 -43.875 19.628906 -43.832031 19.671875 -43.75 C 19.992188 -42.675781 20.296875 -41.382812 20.578125 -39.875 C 20.859375 -38.363281 21.160156 -36.847656 21.484375 -35.328125 C 21.804688 -33.816406 22.179688 -32.550781 22.609375 -31.53125 C 22.796875 -30.925781 23.164062 -30.738281 23.71875 -30.96875 C 24.132812 -31.113281 24.367188 -31.535156 24.421875 -32.234375 C 24.515625 -33.210938 24.570312 -34.394531 24.59375 -35.78125 C 24.613281 -37.175781 24.625 -38.59375 24.625 -40.03125 C 24.625 -41.476562 24.625 -42.691406 24.625 -43.671875 C 24.625 -43.804688 24.671875 -43.875 24.765625 -43.875 L 41.15625 -43.875 C 41.25 -43.875 41.296875 -43.804688 41.296875 -43.671875 C 41.296875 -43.628906 41.296875 -43.582031 41.296875 -43.53125 C 41.296875 -39.582031 41.285156 -35.640625 41.265625 -31.703125 C 41.242188 -27.773438 41.234375 -23.859375 41.234375 -19.953125 Z M 41.234375 -19.953125 "/></g></g></g></g></g><g transform="matrix(1, 0, 0, 1, 77, 158)"><g clip-path="url(#388c648362)"><g clip-path="url(#68c549c966)"><g fill="#1d0061" fill-opacity="1"><g transform="translate(1.127712, 56.484704)"><g><path d="M 2.09375 -46.496094 L 21.417969 -46.496094 C 22.441406 -46.496094 23.273438 -46.144531 23.921875 -45.441406 C 24.507812 -44.800781 24.800781 -44 24.800781 -43.042969 L 24.800781 -42.910156 L 24.789062 -42.773438 C 24.65625 -41.507812 24.578125 -39.726562 24.558594 -37.4375 C 24.535156 -35.074219 24.523438 -32.511719 24.523438 -29.753906 C 24.523438 -27.003906 24.546875 -24.320312 24.589844 -21.707031 L 24.695312 -14.757812 C 24.71875 -12.792969 24.753906 -11.4375 24.796875 -10.6875 L 24.800781 -10.609375 L 24.800781 -10.535156 C 24.800781 -8.957031 24.847656 -7.390625 24.9375 -5.835938 C 25.027344 -4.257812 25.140625 -2.664062 25.28125 -1.0625 C 25.367188 -0.015625 25.089844 0.855469 24.445312 1.558594 C 23.796875 2.265625 22.953125 2.617188 21.90625 2.617188 L 2.164062 2.617188 C 1.738281 2.617188 1.339844 2.53125 0.960938 2.359375 C 0.4375 2.121094 0.0234375 1.753906 -0.273438 1.257812 C -0.65625 0.621094 -0.769531 -0.0859375 -0.613281 -0.863281 L 1.953125 -0.347656 L -0.632812 -0.746094 C -0.554688 -1.246094 -0.496094 -2.253906 -0.453125 -3.773438 C -0.40625 -5.375 -0.382812 -7.175781 -0.382812 -9.175781 C -0.382812 -11.1875 -0.394531 -13.082031 -0.417969 -14.859375 C -0.441406 -16.617188 -0.476562 -17.945312 -0.519531 -18.84375 L -0.523438 -18.910156 L -0.523438 -18.976562 C -0.523438 -20.082031 -0.535156 -21.535156 -0.558594 -23.335938 L -0.628906 -29.199219 L -0.699219 -35.304688 L -0.765625 -40.496094 C -0.789062 -41.996094 -0.800781 -43.03125 -0.800781 -43.601562 L -0.800781 -44.6875 L 1.007812 -46.496094 Z M 2.09375 -41.265625 L 2.09375 -43.882812 L 3.941406 -42.03125 L 3.664062 -41.753906 L 1.8125 -43.601562 L 4.429688 -43.601562 C 4.429688 -43.058594 4.441406 -42.046875 4.464844 -40.566406 L 4.535156 -35.363281 L 4.605469 -29.261719 L 4.675781 -23.40625 C 4.699219 -21.578125 4.710938 -20.101562 4.710938 -18.976562 L 2.09375 -18.976562 L 4.707031 -19.105469 C 4.753906 -18.144531 4.789062 -16.75 4.8125 -14.929688 C 4.835938 -13.125 4.847656 -11.207031 4.847656 -9.175781 C 4.847656 -7.125 4.824219 -5.277344 4.777344 -3.621094 C 4.726562 -1.886719 4.648438 -0.664062 4.539062 0.0507812 L 4.53125 0.105469 L 4.519531 0.164062 C 4.628906 -0.378906 4.527344 -0.914062 4.214844 -1.433594 C 3.953125 -1.871094 3.589844 -2.195312 3.128906 -2.402344 C 2.816406 -2.546875 2.492188 -2.617188 2.164062 -2.617188 L 21.90625 -2.617188 C 21.753906 -2.617188 21.59375 -2.585938 21.417969 -2.527344 C 21.101562 -2.417969 20.824219 -2.234375 20.585938 -1.976562 C 20.351562 -1.722656 20.195312 -1.429688 20.113281 -1.105469 C 20.070312 -0.929688 20.054688 -0.765625 20.066406 -0.613281 C 19.925781 -2.265625 19.808594 -3.90625 19.710938 -5.535156 C 19.617188 -7.1875 19.570312 -8.855469 19.570312 -10.535156 L 22.183594 -10.535156 L 19.574219 -10.378906 C 19.523438 -11.210938 19.488281 -12.644531 19.464844 -14.679688 L 19.359375 -21.617188 C 19.3125 -24.257812 19.289062 -26.972656 19.289062 -29.753906 C 19.289062 -32.53125 19.300781 -35.109375 19.324219 -37.488281 C 19.347656 -39.941406 19.433594 -41.882812 19.582031 -43.3125 L 22.183594 -43.042969 L 19.570312 -43.042969 C 19.570312 -42.644531 19.734375 -42.265625 20.0625 -41.902344 C 20.453125 -41.476562 20.90625 -41.265625 21.417969 -41.265625 Z M 2.09375 -41.265625 "/></g></g></g></g><g fill="#ffffff" fill-opacity="1"><g transform="translate(1.127712, 56.484704)"><g><path d="M 2.09375 -43.875 L 21.421875 -43.875 C 21.929688 -43.875 22.1875 -43.597656 22.1875 -43.046875 C 22.039062 -41.691406 21.957031 -39.828125 21.9375 -37.453125 C 21.914062 -35.085938 21.90625 -32.519531 21.90625 -29.75 C 21.90625 -26.988281 21.925781 -24.289062 21.96875 -21.65625 C 22.019531 -19.03125 22.054688 -16.71875 22.078125 -14.71875 C 22.097656 -12.71875 22.132812 -11.320312 22.1875 -10.53125 C 22.1875 -8.90625 22.234375 -7.289062 22.328125 -5.6875 C 22.421875 -4.082031 22.535156 -2.46875 22.671875 -0.84375 C 22.722656 -0.28125 22.46875 0 21.90625 0 L 2.15625 0 C 1.976562 0 1.910156 -0.113281 1.953125 -0.34375 C 2.046875 -0.945312 2.113281 -2.0625 2.15625 -3.6875 C 2.207031 -5.320312 2.234375 -7.148438 2.234375 -9.171875 C 2.234375 -11.191406 2.21875 -13.097656 2.1875 -14.890625 C 2.164062 -16.679688 2.132812 -18.039062 2.09375 -18.96875 C 2.09375 -20.09375 2.078125 -21.5625 2.046875 -23.375 C 2.023438 -25.1875 2.003906 -27.140625 1.984375 -29.234375 C 1.960938 -31.328125 1.941406 -33.359375 1.921875 -35.328125 C 1.898438 -37.304688 1.875 -39.039062 1.84375 -40.53125 C 1.820312 -42.019531 1.8125 -43.046875 1.8125 -43.609375 C 1.863281 -43.648438 1.957031 -43.738281 2.09375 -43.875 Z M 2.09375 -43.875 "/></g></g></g></g></g><g transform="matrix(1, 0, 0, 1, 285, 159)"><g clip-path="url(#2f899de04f)"><g fill="#1d0061" fill-opacity="1"><g transform="translate(2.458052, 56.471526)"><g><path d="M 23.859375 -46.496094 L 40.394531 -46.496094 C 41.347656 -46.496094 42.109375 -46.140625 42.679688 -45.429688 C 43.234375 -44.734375 43.421875 -43.933594 43.238281 -43.019531 L 40.671875 -43.53125 L 43.269531 -43.207031 C 43.082031 -41.710938 42.824219 -39.75 42.496094 -37.324219 L 41.453125 -29.511719 L 40.371094 -21.351562 C 40.019531 -18.695312 39.707031 -16.382812 39.425781 -14.417969 C 39.148438 -12.480469 38.964844 -11.148438 38.875 -10.417969 L 38.867188 -10.367188 L 38.859375 -10.3125 C 38.636719 -8.980469 38.457031 -7.609375 38.324219 -6.207031 L 37.9375 -2.289062 C 37.832031 -1.234375 37.777344 -0.5625 37.777344 -0.277344 L 37.777344 0.0429688 L 37.699219 0.355469 C 37.558594 0.917969 37.292969 1.390625 36.90625 1.78125 C 36.347656 2.335938 35.675781 2.617188 34.882812 2.617188 L 7.535156 2.617188 C 6.859375 2.617188 6.265625 2.425781 5.753906 2.039062 C 5.367188 1.75 5.078125 1.386719 4.882812 0.945312 C 4.71875 0.582031 4.640625 0.195312 4.640625 -0.210938 L 7.253906 -0.210938 L 4.703125 0.371094 C 4.074219 -2.382812 3.617188 -5.199219 3.328125 -8.074219 C 3.050781 -10.8125 2.730469 -13.539062 2.359375 -16.253906 L 2.351562 -16.316406 C 2.308594 -16.710938 2.21875 -17.394531 2.082031 -18.371094 L 1.628906 -21.613281 C 1.46875 -22.757812 1.308594 -23.835938 1.148438 -24.84375 C 0.976562 -25.917969 0.867188 -26.710938 0.816406 -27.226562 L 3.417969 -27.488281 L 0.859375 -26.949219 C 0.65625 -27.910156 0.457031 -29.234375 0.261719 -30.917969 C 0.0742188 -32.53125 -0.113281 -34.226562 -0.300781 -36.003906 C -0.484375 -37.746094 -0.667969 -39.304688 -0.847656 -40.675781 C -1.023438 -41.996094 -1.152344 -42.828125 -1.226562 -43.175781 L -1.289062 -43.453125 L -1.289062 -43.742188 C -1.289062 -44.511719 -1.023438 -45.164062 -0.488281 -45.695312 C 0.0429688 -46.230469 0.695312 -46.496094 1.464844 -46.496094 L 17.929688 -46.496094 C 18.746094 -46.496094 19.429688 -46.21875 19.988281 -45.660156 C 20.546875 -45.105469 20.824219 -44.417969 20.824219 -43.601562 L 18.207031 -43.601562 L 20.820312 -43.734375 C 20.910156 -42.007812 21.0625 -40.421875 21.285156 -38.972656 C 21.515625 -37.425781 21.75 -35.824219 21.984375 -34.164062 C 22.226562 -32.449219 22.417969 -30.515625 22.5625 -28.359375 C 22.539062 -28.625 22.433594 -28.882812 22.234375 -29.136719 C 21.933594 -29.523438 21.554688 -29.753906 21.09375 -29.828125 C 20.484375 -29.921875 19.9375 -29.75 19.453125 -29.304688 C 19.140625 -29.019531 18.960938 -28.722656 18.90625 -28.40625 L 21.488281 -27.976562 L 18.882812 -28.207031 C 19.074219 -30.382812 19.328125 -32.324219 19.648438 -34.035156 C 19.945312 -35.644531 20.222656 -37.21875 20.476562 -38.757812 C 20.714844 -40.21875 20.878906 -41.875 20.96875 -43.726562 L 20.980469 -43.984375 L 21.042969 -44.238281 C 21.183594 -44.796875 21.445312 -45.273438 21.835938 -45.660156 C 22.390625 -46.21875 23.066406 -46.496094 23.859375 -46.496094 Z M 23.859375 -41.265625 C 24.511719 -41.265625 25.070312 -41.496094 25.535156 -41.960938 C 25.828125 -42.257812 26.023438 -42.59375 26.117188 -42.96875 L 23.582031 -43.601562 L 26.195312 -43.476562 C 26.09375 -41.425781 25.910156 -39.570312 25.636719 -37.910156 C 25.378906 -36.335938 25.097656 -34.722656 24.792969 -33.078125 C 24.503906 -31.53125 24.273438 -29.753906 24.09375 -27.742188 L 24.085938 -27.644531 L 24.066406 -27.546875 C 23.921875 -26.671875 23.558594 -25.96875 22.980469 -25.441406 C 22.226562 -24.753906 21.328125 -24.492188 20.277344 -24.660156 C 19.375 -24.800781 18.652344 -25.222656 18.105469 -25.925781 C 17.664062 -26.492188 17.410156 -27.1875 17.34375 -28.011719 C 17.207031 -30.039062 17.027344 -31.847656 16.804688 -33.4375 C 16.574219 -35.078125 16.339844 -36.660156 16.109375 -38.1875 C 15.863281 -39.808594 15.691406 -41.566406 15.59375 -43.46875 L 15.59375 -43.601562 C 15.59375 -42.972656 15.824219 -42.425781 16.289062 -41.960938 C 16.753906 -41.496094 17.300781 -41.265625 17.929688 -41.265625 L 1.464844 -41.265625 C 2.140625 -41.265625 2.722656 -41.507812 3.210938 -41.996094 C 3.699219 -42.484375 3.941406 -43.066406 3.941406 -43.742188 L 1.324219 -43.742188 L 3.878906 -44.308594 C 3.988281 -43.816406 4.140625 -42.835938 4.335938 -41.367188 C 4.527344 -39.949219 4.714844 -38.34375 4.902344 -36.550781 C 5.089844 -34.792969 5.273438 -33.117188 5.460938 -31.519531 C 5.636719 -29.996094 5.808594 -28.832031 5.980469 -28.027344 L 6.007812 -27.886719 L 6.023438 -27.746094 C 6.0625 -27.332031 6.160156 -26.636719 6.316406 -25.664062 C 6.480469 -24.625 6.648438 -23.515625 6.8125 -22.335938 L 7.265625 -19.09375 C 7.410156 -18.070312 7.503906 -17.335938 7.554688 -16.894531 L 4.953125 -16.605469 L 7.546875 -16.957031 C 7.921875 -14.179688 8.25 -11.394531 8.53125 -8.597656 C 8.800781 -5.941406 9.226562 -3.335938 9.804688 -0.792969 L 9.871094 -0.503906 L 9.871094 -0.210938 C 9.871094 -0.542969 9.800781 -0.867188 9.664062 -1.179688 C 9.492188 -1.570312 9.234375 -1.890625 8.894531 -2.144531 C 8.476562 -2.460938 8.023438 -2.617188 7.535156 -2.617188 L 34.882812 -2.617188 C 34.230469 -2.617188 33.671875 -2.382812 33.207031 -1.917969 C 32.910156 -1.625 32.714844 -1.289062 32.621094 -0.914062 L 35.160156 -0.277344 L 32.542969 -0.277344 C 32.542969 -0.738281 32.605469 -1.582031 32.730469 -2.800781 L 33.113281 -6.703125 C 33.261719 -8.226562 33.453125 -9.71875 33.695312 -11.171875 L 36.277344 -10.742188 L 33.679688 -11.066406 C 33.777344 -11.828125 33.964844 -13.191406 34.246094 -15.160156 C 34.523438 -17.105469 34.835938 -19.398438 35.183594 -22.039062 L 36.265625 -30.207031 L 37.3125 -38.019531 C 37.636719 -40.433594 37.890625 -42.375 38.074219 -43.855469 L 38.089844 -43.953125 L 38.105469 -44.046875 C 38.0625 -43.820312 38.054688 -43.582031 38.085938 -43.339844 C 38.144531 -42.902344 38.316406 -42.507812 38.59375 -42.160156 C 38.878906 -41.800781 39.234375 -41.546875 39.660156 -41.394531 C 39.90625 -41.308594 40.148438 -41.265625 40.394531 -41.265625 Z M 23.859375 -41.265625 "/></g></g></g><g fill="#ffffff" fill-opacity="1"><g transform="translate(2.458052, 56.471526)"><g><path d="M 23.859375 -43.875 L 40.390625 -43.875 C 40.628906 -43.875 40.722656 -43.757812 40.671875 -43.53125 C 40.484375 -42.039062 40.226562 -40.085938 39.90625 -37.671875 C 39.582031 -35.253906 39.234375 -32.648438 38.859375 -29.859375 C 38.484375 -27.066406 38.117188 -24.34375 37.765625 -21.6875 C 37.421875 -19.039062 37.109375 -16.738281 36.828125 -14.78125 C 36.554688 -12.832031 36.375 -11.488281 36.28125 -10.75 C 36.039062 -9.351562 35.851562 -7.921875 35.71875 -6.453125 C 35.582031 -4.984375 35.453125 -3.679688 35.328125 -2.546875 C 35.210938 -1.410156 35.15625 -0.65625 35.15625 -0.28125 C 35.113281 -0.09375 35.019531 0 34.875 0 L 7.53125 0 C 7.34375 0 7.25 -0.0664062 7.25 -0.203125 C 6.644531 -2.859375 6.203125 -5.566406 5.921875 -8.328125 C 5.648438 -11.097656 5.328125 -13.859375 4.953125 -16.609375 C 4.910156 -17.023438 4.816406 -17.734375 4.671875 -18.734375 C 4.535156 -19.734375 4.382812 -20.8125 4.21875 -21.96875 C 4.0625 -23.132812 3.898438 -24.226562 3.734375 -25.25 C 3.566406 -26.28125 3.460938 -27.023438 3.421875 -27.484375 C 3.234375 -28.367188 3.046875 -29.613281 2.859375 -31.21875 C 2.671875 -32.820312 2.484375 -34.503906 2.296875 -36.265625 C 2.109375 -38.035156 1.921875 -39.617188 1.734375 -41.015625 C 1.554688 -42.410156 1.421875 -43.320312 1.328125 -43.75 C 1.328125 -43.832031 1.375 -43.875 1.46875 -43.875 L 17.9375 -43.875 C 18.113281 -43.875 18.203125 -43.785156 18.203125 -43.609375 C 18.296875 -41.785156 18.457031 -40.109375 18.6875 -38.578125 C 18.925781 -37.046875 19.160156 -35.453125 19.390625 -33.796875 C 19.628906 -32.148438 19.816406 -30.28125 19.953125 -28.1875 C 19.992188 -27.625 20.234375 -27.304688 20.671875 -27.234375 C 21.117188 -27.171875 21.390625 -27.414062 21.484375 -27.96875 C 21.671875 -30.0625 21.914062 -31.921875 22.21875 -33.546875 C 22.519531 -35.179688 22.796875 -36.773438 23.046875 -38.328125 C 23.304688 -39.890625 23.484375 -41.648438 23.578125 -43.609375 C 23.628906 -43.785156 23.722656 -43.875 23.859375 -43.875 Z M 23.859375 -43.875 "/></g></g></g></g></g></svg>